<?xml version="1.0" encoding="iso-8859-1"?>
<!-- Generator: Adobe Illustrator 19.0.0, SVG Export Plug-In . SVG Version: 6.00 Build 0)  -->
<svg version="1.1" id="Capa_1" xmlns="http://www.w3.org/2000/svg" xmlns:xlink="http://www.w3.org/1999/xlink" x="0px" y="0px"
	 viewBox="0 0 512 512" style="enable-background:new 0 0 512 512;" xml:space="preserve">
<g>
	<g>
		<g>
			<path d="M486.4,401.067H319.241C309.088,376.081,284.586,358.4,256,358.4s-53.088,17.681-63.241,42.667H25.6
				c-14.117,0-25.6,11.483-25.6,25.6s11.483,25.6,25.6,25.6h167.159c10.153,24.985,34.654,42.667,63.241,42.667
				s53.088-17.681,63.241-42.667H486.4c14.117,0,25.6-11.483,25.6-25.6S500.517,401.067,486.4,401.067z M188.326,435.2H25.6
				c-4.708,0-8.533-3.829-8.533-8.533s3.825-8.533,8.533-8.533h162.726c-0.352,2.802-0.593,5.637-0.593,8.533
				S187.974,432.398,188.326,435.2z M256,477.867c-28.233,0-51.2-22.967-51.2-51.2s22.967-51.2,51.2-51.2
				c28.233,0,51.2,22.967,51.2,51.2S284.233,477.867,256,477.867z M486.4,435.2H323.674c0.352-2.802,0.593-5.637,0.593-8.533
				s-0.241-5.731-0.593-8.533H486.4c4.708,0,8.533,3.829,8.533,8.533S491.108,435.2,486.4,435.2z"/>
			<path d="M25.6,110.933h47.693c10.153,24.985,34.654,42.667,63.241,42.667s53.088-17.681,63.241-42.667H486.4
				c14.117,0,25.6-11.483,25.6-25.6c0-14.117-11.483-25.6-25.6-25.6H199.774c-10.153-24.985-34.654-42.667-63.241-42.667
				S83.445,34.748,73.293,59.733H25.6c-14.117,0-25.6,11.483-25.6,25.6C0,99.45,11.483,110.933,25.6,110.933z M204.207,76.8H486.4
				c4.708,0,8.533,3.829,8.533,8.533s-3.825,8.533-8.533,8.533H204.207c0.352-2.802,0.593-5.638,0.593-8.533
				S204.559,79.602,204.207,76.8z M136.533,34.133c28.233,0,51.2,22.967,51.2,51.2c0,28.233-22.967,51.2-51.2,51.2
				c-28.233,0-51.2-22.967-51.2-51.2C85.333,57.1,108.3,34.133,136.533,34.133z M25.6,76.8h43.259
				c-0.352,2.802-0.593,5.637-0.593,8.533s0.241,5.731,0.593,8.533H25.6c-4.708,0-8.533-3.829-8.533-8.533S20.892,76.8,25.6,76.8z"
				/>
			<path d="M486.4,230.4h-47.693c-10.153-24.985-34.654-42.667-63.241-42.667s-53.088,17.681-63.241,42.667H25.6
				C11.483,230.4,0,241.883,0,256s11.483,25.6,25.6,25.6h286.626c10.153,24.985,34.654,42.667,63.241,42.667
				s53.088-17.681,63.241-42.667H486.4c14.117,0,25.6-11.483,25.6-25.6S500.517,230.4,486.4,230.4z M307.793,264.533H25.6
				c-4.708,0-8.533-3.829-8.533-8.533s3.825-8.533,8.533-8.533h282.193c-0.352,2.802-0.593,5.637-0.593,8.533
				S307.441,261.731,307.793,264.533z M375.467,307.2c-28.233,0-51.2-22.967-51.2-51.2c0-28.233,22.967-51.2,51.2-51.2
				c28.233,0,51.2,22.967,51.2,51.2C426.667,284.233,403.7,307.2,375.467,307.2z M486.4,264.533h-43.259
				c0.352-2.802,0.593-5.637,0.593-8.533s-0.241-5.731-0.593-8.533H486.4c4.708,0,8.533,3.829,8.533,8.533
				S491.108,264.533,486.4,264.533z"/>
		</g>
	</g>
</g>
<g>
</g>
<g>
</g>
<g>
</g>
<g>
</g>
<g>
</g>
<g>
</g>
<g>
</g>
<g>
</g>
<g>
</g>
<g>
</g>
<g>
</g>
<g>
</g>
<g>
</g>
<g>
</g>
<g>
</g>
</svg>
