<svg id="Layer_1" enable-background="new 0 0 512 512" viewBox="0 0 512 512" xmlns="http://www.w3.org/2000/svg"><g clip-rule="evenodd" fill-rule="evenodd"><g><g><path d="m368.931 56.986c11.852 0 21.52 9.667 21.52 21.52v395.971c0 11.853-9.667 21.52-21.52 21.52h-331.41c-11.853 0-21.52-9.667-21.52-21.52v-395.971c0-11.853 9.667-21.52 21.52-21.52z" fill="#837683"/><path d="m341.158 495.997h27.772c11.853 0 21.52-9.667 21.52-21.52v-395.971c0-11.853-9.667-21.52-21.52-21.52h-27.772z" fill="#685e68"/><path d="m350.836 86.923h-295.221c-5.33 0-9.677 4.347-9.677 9.677v359.783c0 5.33 4.347 9.677 9.677 9.677h295.221c5.33 0 9.677-4.347 9.677-9.677v-359.783c0-5.33-4.347-9.677-9.677-9.677z" fill="#eceff1"/><path d="m341.158 466.06h9.678c.304 0 .606-.014.904-.042 4.909-.458 8.773-4.61 8.773-9.635v-359.783c0-5.026-3.865-9.177-8.773-9.635-.298-.028-.599-.042-.904-.042h-9.678z" fill="#d1d1d6"/><path d="m130.05 43.978h30.674c3.95 0 7.326-2.222 8.888-5.85 5.604-13.014 18.544-22.126 33.613-22.126s28.009 9.112 33.614 22.126c1.562 3.628 4.937 5.85 8.888 5.85h30.674c5.33 0 9.677 4.347 9.677 9.677v36.598c0 5.33-4.347 9.677-9.677 9.677h-146.351c-5.33 0-9.677-4.347-9.677-9.677v-36.598c0-5.329 4.347-9.677 9.677-9.677z" fill="#e3a76f"/><path d="m266.724 90.253-146.35.001c0 5.33 4.347 9.677 9.677 9.677h146.351c5.33 0 9.677-4.347 9.677-9.677v-3.331-29.937-3.331c0-5.33-4.347-9.677-9.678-9.678v13.008 23.59c0 2.424-.9 4.646-2.382 6.347-1.777 2.04-4.39 3.331-7.295 3.331z" fill="#c48958"/><path d="m108.572 354.673h36.292c6.587 0 11.975 5.389 11.975 11.975v36.292c0 6.587-5.389 11.976-11.975 11.976h-36.292c-6.587 0-11.976-5.389-11.976-11.976v-36.292c.001-6.586 5.39-11.975 11.976-11.975z" fill="#ffe177"/><path d="m131.971 354.673h12.893c6.586 0 11.975 5.389 11.975 11.975v36.293c0 6.587-5.389 11.976-11.975 11.976h-12.893c6.586 0 11.975-5.389 11.975-11.976v-36.293c0-6.587-5.389-11.975-11.975-11.975z" fill="#ffd064"/><path d="m108.572 252.882h36.292c6.587 0 11.975 5.389 11.975 11.975v36.293c0 6.587-5.389 11.976-11.975 11.976h-36.292c-6.587 0-11.976-5.389-11.976-11.976v-36.293c.001-6.586 5.39-11.975 11.976-11.975z" fill="#6cf5c2"/><path d="m131.971 252.882h12.893c6.586 0 11.975 5.389 11.975 11.976v36.293c0 6.587-5.389 11.975-11.975 11.975h-12.893c6.586 0 11.975-5.389 11.975-11.975v-36.293c0-6.587-5.389-11.976-11.975-11.976z" fill="#00e499"/><path d="m108.572 151.091h36.292c6.587 0 11.975 5.389 11.975 11.975v36.293c0 6.587-5.389 11.975-11.975 11.975h-36.292c-6.587 0-11.976-5.389-11.976-11.975v-36.293c.001-6.586 5.39-11.975 11.976-11.975z" fill="#8ac9fe"/><path d="m131.971 151.091h12.893c6.586 0 11.975 5.389 11.975 11.975v36.293c0 6.587-5.389 11.975-11.975 11.975h-12.893c6.586 0 11.975-5.389 11.975-11.975v-36.293c0-6.586-5.389-11.975-11.975-11.975z" fill="#60b7ff"/></g><g><path d="m471.76 385.11-71.495.109c-47.132.07-61.795-29.52-103.965-53.819-12.587-7.253-27.008-8.815-46.093-14.196-28.076 62.274-65.857 24.261-56.902 3.025l22.171-52.586c4.961-11.767 12.226-20.598 22.816-27.735l30.346-20.453c42.752-28.815 96.149-28.208 138.235 1.571 30.567 21.628 30.053 26.571 65.438 26.572l16.339-.001c4.048 0 7.349 3.301 7.349 7.349v122.817c0 4.047-3.302 7.349-7.349 7.349h-16.89z" fill="#f6dccd"/><g><path d="m352.518 363.922v-29.832c.001-10.164-8.315-18.48-18.478-18.48s-18.481 8.315-18.481 18.479v-11.022c0-10.164-8.316-18.479-18.48-18.479-10.165 0-18.479 8.316-18.479 18.479v40.854c0 10.165 8.316 18.48 18.479 18.48s18.48-8.316 18.48-18.48c0 10.165 8.316 18.48 18.48 18.48s18.479-8.315 18.479-18.479z" fill="#f6dccd"/><g fill="#f1cbbc"><path d="m352.518 363.922v-29.832c.001-10.164-8.315-18.48-18.478-18.48h-.001v66.791c10.164 0 18.479-8.315 18.479-18.479z"/><path d="m315.559 334.09v-11.022c0-10.164-8.316-18.479-18.48-18.479v77.813c10.163 0 18.48-8.316 18.48-18.48z"/></g></g></g><g><path d="m208.734 345.329 129.055-223.529c6.996-12.118 22.585-16.295 34.703-9.299l8.801 5.081c12.118 6.996 16.295 22.585 9.298 34.703l-129.054 223.529-52.802 30.486v-60.971z" fill="#ffd064"/><path d="m370.229 111.341c.765.346 1.521.731 2.263 1.16l8.801 5.081c12.118 6.996 16.295 22.585 9.298 34.703l-129.054 223.529-52.802 30.486v-15.244l39.601-22.864 129.054-223.529c6.567-11.375 3.289-25.808-7.161-33.322z" fill="#ffc338"/><path d="m208.734 406.299v-60.97l52.803 30.485z" fill="#837683"/><path d="m208.734 406.299v-15.243l39.601-22.864 13.202 7.622z" fill="#685e68"/></g><g><path d="m471.76 385.11-71.495.109c-61.202.091-67.655-49.83-150.676-73.236-13.18-3.532-21.146-17.329-17.614-30.509 3.546-13.234 17.275-21.16 30.509-17.614 19.819 5.587 35.647 14.47 50.845 22.247.282.144 48.792-85.144 49.075-85 15.527 3.47 30.612 10.111 44.47 19.917 30.567 21.628 30.053 26.571 65.438 26.572l16.339-.001c4.048 0 7.349 3.302 7.349 7.349v122.817c0 4.047-3.302 7.349-7.349 7.349z" fill="#f6dccd"/><path d="m464.035 385.11h24.615c4.048 0 7.349-3.302 7.349-7.349v-122.816c0-4.047-3.302-7.349-7.349-7.349h-24.615z" fill="#d1d1d6"/><path d="m233.352 298.074c-2.277-5.059-2.908-10.887-1.377-16.599 3.546-13.234 17.275-21.16 30.509-17.614 18.366 5.178 34.009 13.632 50.845 22.247 4.792 2.159 6.926 7.796 4.767 12.588s-7.796 6.927-12.588 4.767l-42.887-19.465c-11.32-5.139-24.422 3.009-29.269 14.076z" fill="#f1cbbc"/></g></g><path d="m488.002 377.122-15.961.019v-121.541h.268 15.693zm-87.741.099c-.061 0-.113 0-.16 0-28.811 0-43.642-11.64-64.15-27.738-18.992-14.921-42.621-33.485-84.192-45.191-.028-.009-.071-.019-.099-.033-8.849-2.368-14.333-11.857-11.96-20.71 2.41-8.99 11.682-14.361 20.668-11.97 16.742 4.721 30.223 11.692 43.261 18.432 19.694 10.176 40.051 20.701 70.622 23.04 4.387.33 8.251-2.961 8.576-7.362.344-4.41-2.956-8.251-7.357-8.59-20.842-1.6-36.281-7.399-50.909-14.45l41.759-72.307c12.699 3.54 24.772 9.32 35.927 17.218 5.084 3.591 9.273 6.698 12.981 9.451 15.731 11.697 23.059 16.526 40.809 18.027v122.12zm-17.811 97.258v-82.676c-4.98-.852-9.588-2.062-13.932-3.573v77.833c0 4.42-3.577 7.997-7.997 7.997h-314.58c-4.42 0-8.002-3.577-8.002-7.997v-379.144c0-4.42 3.582-7.997 8.002-7.997h66.428v-13.941h-74.848c-7.451 0-13.523 6.072-13.523 13.523v395.976c0 7.46 6.072 13.523 13.523 13.523h331.407c7.464-.001 13.522-6.063 13.522-13.524zm-96.373-366.548h-165.706c-4.41 0-8.002-3.582-8.002-8.002v-5.008h-58.431v363.141h298.581v-75.258c-4.881 4.749-11.489 7.597-18.479 7.597-6.938 0-13.49-2.669-18.47-7.531-4.782 4.66-11.301 7.54-18.488 7.54-11.339 0-21.031-7.168-24.801-17.199l-3.813 6.608c-.711 1.21-1.718 2.221-2.928 2.923l-26.952 15.561h71.272c4.42 0 7.997 3.577 7.997 7.997s-3.577 8.002-7.997 8.002h-99.673c-.278 0-.546-.009-.819-.043-.207.019-.419.043-.631.043-1.389 0-2.768-.363-3.996-1.073-2.481-1.426-4.001-4.067-4.001-6.928v-50.797c-6.312-3.582-11.442-9.423-14.351-16.511-3.083-7.489-3.243-15.25-.452-21.873l22.174-52.576c5.587-13.283 13.758-23.214 25.709-31.263l30.35-20.461c1.059-.706 2.137-1.407 3.219-2.085h-58.652c-4.42 0-7.997-3.591-7.997-8.002 0-4.42 3.577-8.002 7.997-8.002h77.71l15.613-27.041h-93.323c-4.42 0-7.997-3.577-7.997-7.997s3.577-8.002 7.997-8.002h101.123c.456 0 .918.052 1.37.132l19.628-34.021c4.453-7.71 11.659-13.231 20.291-15.538.452-.122.908-.235 1.37-.334v-7.009h-58.44v5.008c0 4.42-3.582 8.002-8.002 8.002zm-157.704-55.951h39.288c3.7 0 6.91-2.537 7.781-6.128 3.097-12.859 14.53-21.849 27.789-21.849 13.25 0 24.678 8.99 27.78 21.849.871 3.591 4.081 6.128 7.781 6.128h39.288v39.952h-149.707zm240.554 13.001c7.465 0 13.523 6.072 13.523 13.523v30.52l-5.959-3.441c-2.532-1.469-5.211-2.57-7.973-3.319v-15.345c0-4.42-3.577-7.997-7.997-7.997h-66.442v-13.941zm-144.68 214.431c3.511-13.132 14.535-22.283 27.21-24.071l13.852-23.991-22.551 15.189c-9.249 6.241-15.58 13.932-19.91 24.212l-22.169 52.59c-1.111 2.617-.922 6.1.499 9.56.711 1.709 1.662 3.29 2.791 4.679l21.572-37.34c-2.602-6.411-3.21-13.669-1.294-20.828zm-7.507 79.782v33.259l28.801-16.634zm41.868 5.7 19.571-33.89c-8.929-4.161-19.03-8.002-30.708-11.301-4.283-1.153-8.119-3.111-11.442-5.653l-16.371 28.35zm48.942-16.804c-4.679-3.281-9.691-6.538-15.161-9.701l-5.789 10.021v15.509c0 5.78 4.702 10.492 10.482 10.492s10.477-4.711 10.477-10.492c0-.339.028-.678.071-1.007h-.071zm16.008 12.003v2.81h-.071c.042.329.071.678.071 1.017 0 2.782 1.101 5.413 3.092 7.404 1.982 1.986 4.608 3.078 7.39 3.078 2.099 0 4.118-.65 5.822-1.803-4.594-3.318-9.122-6.867-13.796-10.539-.828-.65-1.666-1.308-2.508-1.967zm-13.297-84.663 45.191-78.271c.009-.028.028-.047.047-.075l28.161-48.792c2.32-4.01 2.928-8.703 1.718-13.203-1.2-4.509-4.081-8.256-8.086-10.577l-8.802-5.083c-4.01-2.306-8.698-2.918-13.198-1.718-4.505 1.209-8.261 4.081-10.572 8.091l-75.969 131.576c16.078 4.971 29.018 11.594 41.51 18.052zm64.277-79.339 7.912-13.706v16.465c-2.612-.999-5.253-1.917-7.912-2.759zm127.123 45.85c-1.501-1.501-3.54-2.339-5.662-2.339h-23.69c-26.768 0-29.94-2.358-47.54-15.429-3.77-2.8-8.053-5.982-13.273-9.672-4.236-2.999-8.59-5.719-13.048-8.167v-51.79c3.671-7.305 4.528-15.613 2.391-23.6-.589-2.203-1.389-4.312-2.391-6.303v-46.138c0-16.272-13.24-29.521-29.521-29.521h-74.849v-4.999c0-4.42-3.582-8.002-8.002-8.002h-41.458c-6.67-16.752-22.89-27.982-41.388-27.982-18.503 0-34.723 11.231-41.402 27.982h-41.458c-4.41 0-8.002 3.582-8.002 8.002v4.999h-74.847c-16.281 0-29.522 13.25-29.522 29.521v395.976c0 16.281 13.24 29.522 29.522 29.522h331.407c16.281 0 29.521-13.24 29.521-29.522v-81.279c.551.01 1.092.019 1.643.019h.188l95.729-.108c4.41 0 7.992-3.582 7.992-8.002v-137.506c0-2.123-.843-4.161-2.34-5.662zm-288.762-195.948c0-5.333-4.339-9.682-9.668-9.682-5.333 0-9.682 4.349-9.682 9.682 0 5.328 4.349 9.677 9.682 9.677 5.328 0 9.668-4.349 9.668-9.677zm-64.06 356.937c0 2.151-1.817 3.982-3.977 3.982h-36.29c-2.151 0-3.973-1.831-3.973-3.982v-36.29c0-2.16 1.822-3.977 3.973-3.977h36.29c2.16 0 3.977 1.817 3.977 3.977zm-3.978-56.271c11.019 0 19.981 8.962 19.981 19.981v36.29c0 11.009-8.962 19.98-19.981 19.98h-36.29c-11.014 0-19.971-8.971-19.971-19.98v-36.29c0-11.019 8.957-19.981 19.971-19.981zm3.978-45.52c0 2.16-1.817 3.982-3.977 3.982h-36.29c-2.151 0-3.973-1.822-3.973-3.982v-36.285c0-2.151 1.822-3.973 3.973-3.973h36.29c2.16 0 3.977 1.822 3.977 3.973zm-3.978-56.257c11.019 0 19.981 8.957 19.981 19.971v36.285c0 11.023-8.962 19.98-19.981 19.98h-36.29c-11.014 0-19.971-8.957-19.971-19.98v-36.285c0-11.014 8.957-19.971 19.971-19.971zm3.978-81.819v36.29c0 2.161-1.817 3.977-3.977 3.977h-36.29c-2.151 0-3.973-1.817-3.973-3.977v-36.29c0-2.151 1.822-3.972 3.973-3.972h36.29c2.159-.001 3.977 1.821 3.977 3.972zm-60.239 0c0-11.009 8.957-19.971 19.971-19.971h36.29c11.019 0 19.981 8.962 19.981 19.971v36.29c0 11.019-8.962 19.981-19.981 19.981h-36.29c-11.014 0-19.971-8.962-19.971-19.981z" fill="#242222"/></g></svg>