<svg id="Layer_1" enable-background="new 0 0 512 512" viewBox="0 0 512 512" xmlns="http://www.w3.org/2000/svg"><g clip-rule="evenodd" fill-rule="evenodd"><path d="m354.82 340.98h27.33v70.87h-27.33z" fill="#e2e7f0"/><path d="m388.15 392.8h-39.37c-3.23 0-5.9 2.66-5.9 5.9v76.03c0 14.06 11.51 25.6 25.6 25.6 14.06 0 25.6-11.54 25.6-25.6v-76.03c0-3.24-2.67-5.9-5.93-5.9z" fill="#ff4646"/><path d="m368.48 352.97c53.4 0 96.97-43.57 96.97-96.97s-43.57-96.97-96.97-96.97c-53.43 0-96.97 43.57-96.97 96.97s43.54 96.97 96.97 96.97z" fill="#0593fc"/><path d="m368.48 184.62c-39.43 0-71.38 31.95-71.38 71.38s31.95 71.38 71.38 71.38 71.38-31.95 71.38-71.38-31.95-71.38-71.38-71.38z" fill="#c4f0f6"/><path d="m46.55 322.87c0 2.21 1.81 4.03 4.03 4.03h101.17c2.21 0 4.03-1.81 4.03-4.03v-133.74c0-2.21-1.81-4.03-4.03-4.03h-101.18c-2.21 0-4.03 1.81-4.03 4.03v133.74z" fill="#e2e7f0"/><path d="m46.55 145.76c0 2.21 1.81 4.03 4.03 4.03h101.17c2.21 0 4.03-1.81 4.03-4.03v-133.74c0-2.21-1.81-4.03-4.03-4.03h-101.18c-2.21 0-4.03 1.81-4.03 4.03v133.74z" fill="#e2e7f0"/><path d="m46.55 499.98c0 2.21 1.81 4.03 4.03 4.03h101.17c2.21 0 4.03-1.81 4.03-4.03v-133.74c0-2.21-1.81-4.03-4.03-4.03h-101.18c-2.21 0-4.03 1.81-4.03 4.03v133.74z" fill="#e2e7f0"/></g><g><path d="m473.46 256c0-57.89-47.11-104.98-105.01-104.98-57.89 0-104.98 47.09-104.98 104.98 0 50.47 35.79 92.74 83.31 102.75v26.2c-6.74.97-11.93 6.77-11.93 13.77v76c0 18.53 15.08 33.6 33.6 33.6s33.6-15.08 33.6-33.6v-76c0-7.01-5.2-12.81-11.93-13.78v-26.19c47.54-10.01 83.34-52.28 83.34-102.75zm-87.42 218.72c0 9.7-7.89 17.59-17.59 17.59s-17.59-7.89-17.59-17.59v-73.91h35.18zm-23.24-89.93v-23.94c1.87.1 3.76.15 5.66.15s3.78-.05 5.66-.15v23.94zm5.65-39.8c-49.06 0-88.97-39.92-88.97-88.99 0-49.06 39.91-88.96 88.97-88.96 49.07 0 88.99 39.91 88.99 88.96 0 49.07-39.92 88.99-88.99 88.99zm0-168.37c-43.77 0-79.38 35.61-79.38 79.38s35.61 79.38 79.38 79.38 79.38-35.61 79.38-79.38-35.61-79.38-79.38-79.38zm0 142.75c-34.94 0-63.37-28.43-63.37-63.37s28.43-63.37 63.37-63.37 63.37 28.43 63.37 63.37-28.43 63.37-63.37 63.37zm-73.79 37.49c-3.57-2.61-8.58-1.84-11.19 1.73l-48.68 66.51h-71.04v-58.86c0-6.62-5.39-12-12-12h-101.21c-6.62 0-12 5.38-12 12v133.77c0 6.62 5.39 12 12 12h101.2c6.62 0 12-5.39 12-12v-58.89h75.1c2.55 0 4.95-1.22 6.46-3.28l51.08-69.79c2.62-3.57 1.85-8.58-1.72-11.19zm-146.93 139.14h-93.17v-125.75h93.17zm-85.29-401.83c0-4.42 3.58-8.01 8.01-8.01h61.4c4.42 0 8.01 3.58 8.01 8.01s-3.58 8.01-8.01 8.01h-61.4c-4.43 0-8.01-3.59-8.01-8.01zm-11.9 63.62h101.2c6.62 0 12-5.4 12-12.03v-58.86h71.04l48.68 66.54c1.57 2.14 4 3.28 6.47 3.28 1.64 0 3.3-.5 4.72-1.55 3.57-2.61 4.35-7.62 1.73-11.19l-51.08-69.82c-1.51-2.06-3.91-3.28-6.46-3.28h-75.1v-58.86c0-6.63-5.39-12.03-12-12.03h-101.2c-6.62 0-12 5.4-12 12.03v133.74c0 6.64 5.39 12.03 12 12.03zm4.02-141.79h93.17v125.77h-93.17zm7.88 255.28c0-4.42 3.58-8.01 8.01-8.01h61.4c4.42 0 8.01 3.58 8.01 8.01s-3.58 8.01-8.01 8.01h-61.4c-4.43 0-8.01-3.59-8.01-8.01zm78.03-146.58c0 4.42-3.58 8.01-8.01 8.01h-62.64c-4.42 0-8.01-3.58-8.01-8.01s3.58-8.01 8.01-8.01h62.65c4.42 0 8 3.59 8 8.01zm-78.03-61.06c0-4.42 3.58-8.01 8.01-8.01h61.4c4.42 0 8.01 3.58 8.01 8.01s-3.58 8.01-8.01 8.01h-61.4c-4.43 0-8.01-3.59-8.01-8.01zm0 177.11c0-4.42 3.58-8.01 8.01-8.01h61.4c4.42 0 8.01 3.58 8.01 8.01s-3.58 8.01-8.01 8.01h-61.4c-4.43 0-8.01-3.59-8.01-8.01zm78.03-207.67c0 4.42-3.58 8.01-8.01 8.01h-62.02c-4.42 0-8.01-3.58-8.01-8.01s3.58-8.01 8.01-8.01h62.02c4.43.01 8.01 3.59 8.01 8.01zm-89.93 301.82h101.2c6.62 0 12-5.4 12-12.03v-58.86h71.76c4.42 0 8.01-3.58 8.01-8.01s-3.58-8.01-8.01-8.01h-71.76v-58.86c0-6.62-5.39-12-12-12h-101.2c-6.62 0-12 5.39-12 12v133.74c0 6.63 5.39 12.03 12 12.03zm4.02-141.76h93.17v125.75h-93.17zm85.91 194.19c0 4.42-3.58 8.01-8.01 8.01h-62.02c-4.42 0-8.01-3.58-8.01-8.01s3.58-8.01 8.01-8.01h62.02c4.43 0 8.01 3.59 8.01 8.01zm266.81-158.51c3.13 3.13 3.13 8.2 0 11.32l-43.03 43.06c-1.5 1.5-3.54 2.35-5.66 2.35-2.12 0-4.16-.84-5.66-2.35l-23.3-23.3c-3.13-3.13-3.13-8.2 0-11.32 3.13-3.13 8.2-3.13 11.33 0l17.64 17.64 37.37-37.39c3.11-3.14 8.18-3.14 11.31-.01zm-266.81 250.1c0 4.42-3.58 8.01-8.01 8.01h-62.64c-4.42 0-8.01-3.58-8.01-8.01s3.58-8.01 8.01-8.01h62.65c4.42 0 8 3.58 8 8.01zm0-177.11c0 4.42-3.58 8.01-8.01 8.01h-62.64c-4.42 0-8.01-3.58-8.01-8.01s3.58-8.01 8.01-8.01h62.65c4.42 0 8 3.59 8 8.01zm0-91.59c0 4.42-3.58 8.01-8.01 8.01h-62.02c-4.42 0-8.01-3.58-8.01-8.01s3.58-8.01 8.01-8.01h62.02c4.43 0 8.01 3.59 8.01 8.01zm-78.03 207.64c0-4.42 3.58-8.01 8.01-8.01h61.4c4.42 0 8.01 3.58 8.01 8.01s-3.58 8.01-8.01 8.01h-61.4c-4.43 0-8.01-3.59-8.01-8.01zm0 30.53c0-4.42 3.58-8.01 8.01-8.01h61.4c4.42 0 8.01 3.58 8.01 8.01s-3.58 8.01-8.01 8.01h-61.4c-4.43 0-8.01-3.59-8.01-8.01z"/></g></svg>