<svg id="Layer_1" enable-background="new 0 0 512 512" height="512" viewBox="0 0 512 512" width="512" xmlns="http://www.w3.org/2000/svg"><g><g><g><path d="m208 484h-176c-8.837 0-16-7.163-16-16v-152c0-8.837 7.163-16 16-16h176c8.837 0 16 7.163 16 16v152c0 8.837-7.163 16-16 16z" fill="#a5c3dc"/></g><g><path d="m192 484h-160c-8.837 0-16-7.163-16-16v-152c0-8.837 7.163-16 16-16h160c8.837 0 16 7.163 16 16v152c0 8.837-7.163 16-16 16z" fill="#d7e6f0"/></g><g><path d="m52 336h120v31.999h-120z" fill="#5ad7ff"/></g><path d="m176 328h-128c-2.209 0-4 1.791-4 4v120c0 2.209 1.791 4 4 4h128c2.209 0 4-1.791 4-4v-120c0-2.209-1.791-4-4-4zm-4 40h-80v-32h80zm-80 8h80v32h-80zm-8 32h-32v-32h32zm0-72v32h-32v-32zm-32 80h32v32h-32zm40 32v-32h80v32z" fill="#2387c3"/></g><g><g><path d="m480 484h-176c-8.837 0-16-7.163-16-16v-152c0-8.837 7.163-16 16-16h176c8.837 0 16 7.163 16 16v152c0 8.837-7.163 16-16 16z" fill="#a5c3dc"/></g><g><path d="m464 484h-160c-8.837 0-16-7.163-16-16v-152c0-8.837 7.163-16 16-16h160c8.837 0 16 7.163 16 16v152c0 8.837-7.163 16-16 16z" fill="#d7e6f0"/></g><g><path d="m324 336h120v31.999h-120z" fill="#5ad7ff"/></g><path d="m448 328h-128c-2.209 0-4 1.791-4 4v120c0 2.209 1.791 4 4 4h128c2.209 0 4-1.791 4-4v-120c0-2.209-1.791-4-4-4zm-4 40h-80v-32h80zm-80 8h80v32h-80zm-8 32h-32v-32h32zm0-72v32h-32v-32zm-32 80h32v32h-32zm40 32v-32h80v32z" fill="#2387c3"/></g><g><g><path d="m344 212h-176c-8.837 0-16-7.163-16-16v-152c0-8.837 7.163-16 16-16h176c8.837 0 16 7.163 16 16v152c0 8.837-7.163 16-16 16z" fill="#a5c3dc"/></g><g><path d="m328 212h-160c-8.837 0-16-7.163-16-16v-152c0-8.837 7.163-16 16-16h160c8.837 0 16 7.163 16 16v152c0 8.837-7.163 16-16 16z" fill="#d7e6f0"/></g><g><path d="m188 64h120v31.999h-120z" fill="#5ad7ff"/></g><path d="m312 56h-128c-2.209 0-4 1.791-4 4v120c0 2.209 1.791 4 4 4h128c2.209 0 4-1.791 4-4v-120c0-2.209-1.791-4-4-4zm-4 40h-80v-32h80zm-80 8h80v32h-80zm-8 32h-32v-32h32zm0-72v32h-32v-32zm-32 80h32v32h-32zm40 32v-32h80v32z" fill="#2387c3"/></g><g fill="#faa019"><path d="m142.007 119.562-20.36-18.098c-1.061-.943-2.431-1.464-3.851-1.464-3.201 0-5.796 2.595-5.796 5.796v10.204h-32c-13.234 0-24 10.767-24 24v120h-10.204c-3.201 0-5.796 2.595-5.796 5.796 0 1.419.521 2.79 1.464 3.851l18.098 20.36c1.127 1.268 2.742 1.993 4.438 1.993s3.311-.725 4.438-1.993l18.098-20.36c.943-1.061 1.464-2.431 1.464-3.851 0-3.201-2.595-5.796-5.796-5.796h-10.204v-120c0-4.411 3.589-8 8-8h32v10.203c0 3.201 2.595 5.796 5.796 5.796 1.42 0 2.79-.521 3.851-1.464l20.36-18.098c1.268-1.127 1.993-2.742 1.993-4.438s-.725-3.311-1.993-4.437z"/><path d="m338.204 260h-10.204v-8c0-13.233-10.766-24-24-24h-96c-13.234 0-24 10.767-24 24v8h-10.204c-3.201 0-5.796 2.595-5.796 5.796 0 1.419.521 2.79 1.464 3.851l18.098 20.36c1.127 1.268 2.742 1.993 4.438 1.993s3.311-.725 4.438-1.993l18.098-20.36c.943-1.061 1.464-2.431 1.464-3.851 0-3.201-2.595-5.796-5.796-5.796h-10.204v-8c0-4.411 3.589-8 8-8h96c4.411 0 8 3.589 8 8v8h-10.204c-3.201 0-5.796 2.595-5.796 5.796 0 1.419.521 2.79 1.464 3.851l18.098 20.36c1.127 1.268 2.742 1.993 4.438 1.993s3.311-.725 4.438-1.993l18.098-20.36c.943-1.061 1.464-2.431 1.464-3.851 0-3.201-2.595-5.796-5.796-5.796z"/><path d="m466.204 260h-10.204v-120c0-13.233-10.766-24-24-24h-32v-10.204c0-3.201-2.595-5.796-5.796-5.796-1.42 0-2.79.521-3.851 1.464l-20.36 18.098c-1.268 1.126-1.993 2.742-1.993 4.438s.725 3.312 1.993 4.438l20.36 18.098c1.061.943 2.431 1.464 3.851 1.464 3.201 0 5.796-2.595 5.796-5.796v-10.204h32c4.411 0 8 3.589 8 8v120h-10.204c-3.201 0-5.796 2.595-5.796 5.796 0 1.419.521 2.79 1.464 3.851l18.098 20.36c1.127 1.268 2.742 1.993 4.438 1.993s3.311-.725 4.438-1.993l18.098-20.36c.943-1.061 1.464-2.431 1.464-3.851 0-3.201-2.595-5.796-5.796-5.796z"/></g></g></svg>