<svg height="512pt" viewBox="0 0 512 512" width="512pt" xmlns="http://www.w3.org/2000/svg"><path d="m437.332031 277.332031v74.667969h-405.332031c-11.765625-.035156-21.296875-9.566406-21.332031-21.332031v-53.335938zm0 0" fill="#d0d7df"/><path d="m437.332031 149.332031v128h-426.664062v-245.332031c.035156-11.765625 9.566406-21.296875 21.332031-21.332031h384c11.765625.035156 21.296875 9.566406 21.332031 21.332031zm0 0" fill="#35dc86"/><path d="m138.667969 352h117.332031v53.332031h-117.332031zm0 0" fill="#a4b0c0"/><path d="m170.667969 181.332031v-170.664062h-53.335938v85.332031h-106.664062v53.332031h106.664062v117.335938h-106.664062v53.332031h106.664062v32h53.335938v-128h74.664062v-42.667969zm0 0" fill="#fed049"/><path d="m309.332031 181.332031h170.667969c11.78125 0 21.332031 9.550781 21.332031 21.335938v277.332031c0 11.78125-9.550781 21.332031-21.332031 21.332031h-170.667969c-11.78125 0-21.332031-9.550781-21.332031-21.332031v-277.332031c0-11.785157 9.550781-21.335938 21.332031-21.335938zm0 0" fill="#f1f2f2"/><path d="m288 458.667969v21.332031c.035156 11.765625 9.566406 21.296875 21.332031 21.332031h170.667969c11.765625-.035156 21.296875-9.566406 21.332031-21.332031v-21.332031zm0 0" fill="#d0d7df"/><path d="m416 298.667969c0 11.78125-9.550781 21.332031-21.332031 21.332031-11.785157 0-21.335938-9.550781-21.335938-21.332031 0-11.785157 9.550781-21.335938 21.335938-21.335938 11.78125 0 21.332031 9.550781 21.332031 21.335938zm0 0" fill="#f1f2f2"/><path d="m394.667969 234.667969c35.34375 0 64 28.652343 64 64 0 35.304687-64 106.664062-64 106.664062s-64-71.359375-64-106.664062c0-35.347657 28.652343-64 64-64zm21.332031 64c0-11.785157-9.550781-21.335938-21.332031-21.335938-11.785157 0-21.335938 9.550781-21.335938 21.335938 0 11.78125 9.550781 21.332031 21.335938 21.332031 11.765625-.035156 21.296875-9.566406 21.332031-21.332031zm0 0" fill="#fa5c66"/><g fill="#474c54"><path d="m480 170.667969h-170.667969c-17.671875 0-32 14.324219-32 32v277.332031c0 17.671875 14.328125 32 32 32h170.667969c17.671875 0 32-14.328125 32-32v-277.332031c0-17.675781-14.328125-32-32-32zm10.667969 309.332031c0 5.890625-4.777344 10.667969-10.667969 10.667969h-170.667969c-5.890625 0-10.664062-4.777344-10.664062-10.667969v-277.332031c0-5.890625 4.773437-10.667969 10.664062-10.667969h170.667969c5.890625 0 10.667969 4.777344 10.667969 10.667969zm0 0"/><path d="m373.332031 448h42.667969v21.332031h-42.667969zm0 0"/><path d="m21.332031 330.667969v-298.667969c0-5.890625 4.777344-10.667969 10.667969-10.667969h384c5.890625 0 10.667969 4.777344 10.667969 10.667969v117.332031h21.332031v-117.332031c0-17.671875-14.328125-32-32-32h-384c-17.671875 0-32 14.328125-32 32v298.667969c0 17.671875 14.328125 32 32 32h96v32h-32v21.332031h160v-21.332031h-106.667969v-32h106.667969v-21.335938h-224c-5.890625 0-10.667969-4.773437-10.667969-10.664062zm0 0"/><path d="m394.667969 224c-41.21875.046875-74.621094 33.449219-74.667969 74.667969 0 38.28125 59.894531 106.175781 66.71875 113.789062 2.023438 2.261719 4.914062 3.554688 7.949219 3.554688 3.03125 0 5.921875-1.292969 7.945312-3.554688 6.828125-7.613281 66.71875-75.507812 66.71875-113.789062-.046875-41.21875-33.449219-74.621094-74.664062-74.667969zm0 165.066406c-23.296875-27.660156-53.335938-70.132812-53.335938-90.398437 0-29.457031 23.878907-53.335938 53.335938-53.335938 29.453125 0 53.332031 23.878907 53.332031 53.335938 0 20.265625-30.039062 62.738281-53.332031 90.398437zm0 0"/><path d="m394.667969 266.667969c-17.675781 0-32 14.324219-32 32 0 17.671875 14.324219 32 32 32 17.671875 0 32-14.328125 32-32 0-17.675781-14.328125-32-32-32zm0 42.664062c-5.890625 0-10.667969-4.773437-10.667969-10.664062s4.777344-10.667969 10.667969-10.667969 10.664062 4.777344 10.664062 10.667969-4.773437 10.664062-10.664062 10.664062zm0 0"/><path d="m128 42.667969h-21.332031v42.664062h-64v21.335938h74.664062c5.890625 0 10.667969-4.777344 10.667969-10.667969zm0 0"/><path d="m181.332031 42.667969h-21.332031v138.664062c0 5.890625 4.777344 10.667969 10.667969 10.667969h85.332031v-21.332031h-74.667969zm0 0"/><path d="m42.667969 256v21.332031h74.664062c5.890625 0 10.667969-4.773437 10.667969-10.664062v-117.335938c0-5.890625-4.777344-10.664062-10.667969-10.664062h-74.664062v21.332031h64v96zm0 0"/><path d="m160 234.667969v85.332031h21.332031v-74.667969h74.667969v-21.332031h-85.332031c-5.890625 0-10.667969 4.777344-10.667969 10.667969zm0 0"/><path d="m265.75 101.332031 19.125-19.125-15.082031-15.082031-19.125 19.125-19.125-19.125-15.085938 15.082031 19.128907 19.125-19.128907 19.125 15.085938 15.085938 19.125-19.128907 19.125 19.128907 15.082031-15.085938zm0 0"/><path d="m405.332031 74.667969c0-17.675781-14.324219-32-32-32h-21.332031v21.332031h21.332031c5.890625 0 10.667969 4.777344 10.667969 10.667969v21.332031h21.332031zm0 0"/><path d="m384 117.332031h21.332031v21.335938h-21.332031zm0 0"/></g></svg>