<svg id="Capa_1" enable-background="new 0 0 512 512" height="512" viewBox="0 0 512 512" width="512" xmlns="http://www.w3.org/2000/svg"><g><g><g><path d="m359.202 490.311c130.877-71.425 152.78-329.015 61.931-429.885v-.021c-38.102-32.217-85.76-53.481-138.103-58.973-11.04.088-21.757.728-32.197 1.848-202.366 45.593-217.202 410.951-26.16 495.085 21.801 5.082 45.318 8.625 70.571 10.604 22.412-3.445 43.863-9.795 63.958-18.658z" fill="#59d5ff"/><path d="m165.256 221.918c9.906-86.607 41.553-163.017 85.578-218.638-78.124 8.379-140.068 44.599-194.915 93.034-14.728 18.42-26.952 38.919-36.178 60.99h.01c-18.059 190.339 49.78 304.892 204.922 341.061-47.631-68.255-71.77-168.455-59.417-276.447z" fill="#00c4fc"/><path d="m490.314 359.199c-28.245 26.073-89.752 5.388-112.526-23.85-1.179-1.541-2.399-3.051-3.672-4.53-17.91-20.919-14.98-52.533 6.547-69.739 49.789-39.819 70.039-106.093 51.019-166.928l-10.549-33.727v-.021c89.106 75.307 113.709 197.796 69.181 298.795z" fill="#00c344"/><path d="m511.971 418.885c0-46.132-33.734-84.827-78.326-91.917-92.062-.008-92.078 183.825-.016 183.833 44.405-7.063 78.342-45.52 78.342-91.916z" fill="#615285"/><path d="m433.645 326.969c-4.803-.764-9.73-1.165-14.757-1.165-51.605 0-93.082 41.906-93.082 93.082 0 51.412 41.67 93.082 93.082 93.082 5.017 0 9.939-.402 14.74-1.166-18.756-22.704-30.533-55.474-30.533-91.916 0-36.335 11.762-69.162 30.55-91.917z" fill="#4e3a65"/><path d="m434.402 434.399v31.027c0 8.564-6.95 15.514-15.514 15.514s-15.514-6.95-15.514-15.514v-31.027c0-8.564 6.95-15.514 15.514-15.514 8.55 0 15.514 6.95 15.514 15.514z" fill="#00da77"/><circle cx="418.888" cy="372.344" fill="#00da77" r="15.514"/><path d="m295.244 508.968c-2.269-9.344-.392-55.319-37.678-99.753-18.927-22.567-44.255-39.777-73.587-48.806-5.484-1.685-10.702-3.883-15.623-6.514-78.531 17.222-46.297 130.665 65.773 157.182 19.922 1.695 40.392 1.091 61.115-2.109z" fill="#00c344"/><path d="m121.915 276.387c0-28.132-13.456-54.557-36.209-71.105l-65.954-47.979h-.01c-12.712 30.376-19.724 63.71-19.724 98.688 0 136.523 105.514 244.149 234.111 255.086-32.269-40.859-55.316-95.337-65.773-157.182-28.195-15.069-46.441-44.661-46.441-77.508z" fill="#04a814"/><path d="m284.84 38.396-1.81-36.964c-9.903-1.049-19.777-1.512-29.581-1.421-72.606 11.219-98.765 61.165-52.013 86.202 4.486 1.249 8.924 2.658 13.303 4.226 35.236 12.577 71.942-14.675 70.101-52.043z" fill="#00c344"/><path d="m55.919 96.314 48.351-11.718c33.076-7.944 66.298-6.978 97.165 1.617 14.269-32.375 31.894-61.433 52.013-86.202-76.744.718-149.185 35.807-197.529 96.303z" fill="#04a814"/><path d="m338.362 172.259c16.786 0 30.397 10.839 30.397 24.201s-13.611 24.201-30.397 24.201-30.386-10.839-30.386-24.201 13.6-24.201 30.386-24.201z" fill="#fff"/><path d="m231.493 177.864c0-15.141 10.963-16.569 24.501-16.569s24.501 1.427 24.501 16.569c0 15.141-10.963 27.418-24.501 27.418s-24.501-12.276-24.501-27.418z" fill="#334151"/><path d="m173.627 172.259c16.786 0 30.386 10.839 30.386 24.201s-13.6 24.201-30.386 24.201-30.397-10.839-30.397-24.201 13.611-24.201 30.397-24.201z" fill="#fff"/><g fill="#334151"><path d="m178.705 175.32c-4.284 0-7.757-3.473-7.757-7.757v-12.411c0-4.284 3.473-7.757 7.757-7.757s7.757 3.473 7.757 7.757v12.411c0 4.284-3.473 7.757-7.757 7.757z"/><path d="m333.284 175.32c-4.284 0-7.757-3.473-7.757-7.757v-12.411c0-4.284 3.473-7.757 7.757-7.757s7.757 3.473 7.757 7.757v12.411c0 4.284-3.473 7.757-7.757 7.757z"/></g></g></g></g></svg>