<svg id="Capa_1" enable-background="new 0 0 511.993 511.993" height="512" viewBox="0 0 511.993 511.993" width="512" xmlns="http://www.w3.org/2000/svg"><g><g><g><path d="m412.503 190.149c0 118.968-124.798 262.01-168.078 308.041-7.902 8.404-21.241 8.404-29.143 0-43.28-46.03-168.078-189.072-168.078-308.04 0-100.875 81.775-182.65 182.65-182.65 100.874 0 182.649 81.775 182.649 182.649z" fill="#fb5532"/><g fill="#ec462e"><circle cx="231.296" cy="219.074" r="116.851"/><path d="m412.499 190.141c0 118.982-124.788 262.009-168.073 308.057-7.908 8.389-21.242 8.389-29.15 0-6.206-6.607-14.095-15.216-23.024-25.446 53.475-61.143 145.029-180.706 145.029-282.61 0-87.97-62.204-161.426-145.029-178.764 12.133-2.543 24.706-3.884 37.599-3.884 100.884-.001 182.648 81.783 182.648 182.647z"/></g></g><g><g><g><g><g><g><g><g><g><path d="m334.711 278.28h31.646v47.885h-31.646z" fill="#557983" transform="matrix(.707 -.707 .707 .707 -111.035 336.385)"/><path d="m364.796 294.114c-2.232 4.761-5.311 9.214-9.236 13.139-3.883 3.872-8.305 6.982-13.118 9.257l-20.026-20.026 22.375-22.375z" fill="#3f5959"/></g><g><path d="m340.598 292.287c-10.042 10.042-26.323 10.042-36.365 0l-18.183-18.183 36.365-36.365 18.183 18.183c10.042 10.042 10.042 26.323 0 36.365z" fill="#23f1a8"/><path d="m344.791 261.424c-9.479 13.679-21.37 25.57-35.049 35.049-1.978-1.111-3.83-2.507-5.512-4.189l-18.186-18.175 36.371-36.371 18.186 18.186c1.683 1.681 3.079 3.532 4.19 5.5z" fill="#26d192"/></g><g><circle cx="231.296" cy="182.985" fill="#a9d3d8" r="116.851"/><path d="m348.145 182.99c0 64.533-52.314 116.847-116.847 116.847-6.527 0-12.938-.54-19.169-1.566 55.414-9.151 97.678-57.276 97.678-115.281 0-58.016-42.264-106.141-97.678-115.292 6.231-1.026 12.642-1.566 19.169-1.566 64.533 0 116.847 52.314 116.847 116.858z" fill="#90bac4"/></g><g><circle cx="231.296" cy="182.985" fill="#eef4f5" r="81.093"/><path d="m312.387 182.988c0 44.788-36.3 81.088-81.088 81.088-6.451 0-12.721-.755-18.733-2.179 35.755-8.449 62.355-40.573 62.355-78.909s-26.599-70.469-62.355-78.918c6.012-1.424 12.282-2.179 18.733-2.179 44.787 0 81.088 36.31 81.088 81.097z" fill="#cbe5e7"/></g></g></g></g></g></g></g></g></g></g><g><path d="m456.566 408.255c-10.987 10.987-28.8 10.987-39.787 0l-64.655-64.655c-3.631-3.631-3.631-9.519 0-13.15l26.636-26.637c3.631-3.631 9.519-3.631 13.15 0l64.655 64.655c10.988 10.987 10.988 28.8.001 39.787z" fill="#23f1a8"/><path d="m456.571 408.252c-3.777 3.777-8.358 6.252-13.192 7.437 2.264-9.236-.222-19.392-7.427-26.607l-64.66-64.649c-3.629-3.629-9.521-3.629-13.15 0l20.619-20.619c3.629-3.629 9.521-3.629 13.15 0l64.66 64.649c10.981 10.993 10.981 28.808 0 39.789z" fill="#26d192"/><g><path d="m54.703 190.15c0-96.578 78.572-175.15 175.15-175.15 41.508 0 81.768 14.79 113.362 41.645 3.157 2.683 7.89 2.298 10.572-.857 2.683-3.156 2.299-7.89-.857-10.572-34.304-29.158-78.014-45.216-123.077-45.216-104.849 0-190.15 85.301-190.15 190.15 0 34.108 9.941 72.81 29.548 115.03 15.493 33.362 37.042 69.039 64.049 106.041 1.468 2.012 3.75 3.079 6.063 3.079 1.534 0 3.082-.469 4.416-1.442 3.346-2.442 4.078-7.134 1.636-10.479-41.382-56.7-90.712-139.546-90.712-212.229z"/><path d="m231.296 94.392c-41.028 0-76.427 27.824-86.084 67.662-.976 4.025 1.497 8.08 5.522 9.056 4.024.976 8.08-1.497 9.056-5.522 8.021-33.087 37.425-56.195 71.506-56.195 40.579 0 73.593 33.014 73.593 73.593s-33.014 73.593-73.593 73.593c-34.113 0-64.301-24.13-71.778-57.377-.908-4.04-4.921-6.578-8.963-5.671-4.041.909-6.581 4.922-5.672 8.963 4.344 19.311 15.248 36.843 30.703 49.367 15.691 12.715 35.477 19.718 55.71 19.718 48.851 0 88.593-39.743 88.593-88.593s-39.742-88.594-88.593-88.594z"/><path d="m378.633 294.989c-.535.233-1.056.497-1.565.786l-21.448-21.447c0-8.871-3.45-17.436-9.721-23.708l-6.405-6.405c10.275-18.086 16.153-38.984 16.153-61.23 0-68.567-55.784-124.351-124.352-124.351s-124.351 55.784-124.351 124.352c0 68.567 55.784 124.351 124.352 124.351 22.245 0 43.141-5.877 61.227-16.151l6.407 6.399c6.271 6.279 14.841 9.731 23.713 9.731l21.448 21.448c-3.618 6.405-2.72 14.691 2.729 20.14l1.984 1.984c-37.95 62.365-84.944 115.685-109.843 142.166-2.39 2.541-5.624 3.94-9.108 3.94-3.483 0-6.717-1.399-9.106-3.94-12.507-13.301-31.867-34.763-53.07-61.467-2.577-3.244-7.294-3.787-10.538-1.21-3.243 2.576-3.785 7.293-1.21 10.537 21.526 27.111 41.188 48.906 53.891 62.415 5.178 5.507 12.479 8.666 20.034 8.666h.001c7.554 0 14.857-3.158 20.035-8.665 24.888-26.469 71.516-79.341 109.829-141.527l51.758 51.758c6.946 6.947 16.071 10.42 25.196 10.42s18.25-3.473 25.196-10.42h.001c13.893-13.894 13.893-36.5 0-50.394l-64.656-64.655c-.851-.85-1.781-1.59-2.767-2.229 16.945-38.752 25.556-74.441 25.556-106.131 0-42.926-13.962-83.439-40.376-117.16-2.555-3.261-7.27-3.833-10.529-1.279-3.261 2.554-3.834 7.269-1.279 10.529 24.326 31.056 37.185 68.371 37.185 107.91-.001 30.845-8.9 66.187-26.371 104.837zm-256.688-112.004c0-60.297 49.055-109.352 109.351-109.352 60.297 0 109.352 49.055 109.352 109.351 0 60.297-49.055 109.352-109.351 109.352-60.298 0-109.352-49.054-109.352-109.351zm183.418 99.824c9.789-7.282 18.474-15.967 25.756-25.756l4.173 4.173c3.438 3.439 5.333 8.012 5.333 12.876 0 4.865-1.895 9.438-5.336 12.879-3.439 3.442-8.012 5.338-12.875 5.338-4.862 0-9.435-1.896-12.879-5.344zm40.536 14.777c2.012-2.012 3.73-4.24 5.141-6.627l14.984 14.984-11.769 11.769-14.981-14.981c2.386-1.412 4.613-3.131 6.625-5.145zm105.365 105.366c-8.046 8.045-21.137 8.045-29.181 0l-64.655-64.655c-.701-.702-.701-1.843 0-2.544l26.637-26.637c.435-.435.932-.526 1.271-.526s.837.092 1.271.527l64.655 64.655c8.046 8.044 8.046 21.135.002 29.18z"/></g></g></g></svg>