<svg id="flat" height="512" viewBox="0 0 500 500" width="512" xmlns="http://www.w3.org/2000/svg"><ellipse cx="86.578" cy="164.93" fill="#ffcc71" rx="67" ry="23.881"/><ellipse cx="86.578" cy="164.93" fill="#c18c16" rx="33.777" ry="12.039"/><path d="m143.99 74.57a57.253 57.253 0 0 1 -14.9 38.59c-.4.44-.78.88-1.15 1.34a35.183 35.183 0 0 0 -5.42 9.34c-7.38 18.65-18.35 33.35-33.16 43.86a4.825 4.825 0 0 1 -5.57 0c-14.8-10.51-25.78-25.21-33.15-43.85a36.462 36.462 0 0 0 -5.47-9.36q-.66-.84-1.38-1.65a57.406 57.406 0 1 1 100.2-38.27z" fill="#e53434"/><path d="m112.77 74.57c0 .29 0 .59-.02.88a26.19 26.19 0 0 1 -39.99 21.38h-.01a25.728 25.728 0 0 1 -4.33-3.38 26.187 26.187 0 1 1 44.35-18.88z" fill="#f0f4ff"/><path d="m288.272 258.485a4.975 4.975 0 0 1 -2.153-.49l-36.086-17.258a5 5 0 1 1 4.315-9.021l36.085 17.258a5 5 0 0 1 -2.161 9.511zm-72.172-34.516a4.976 4.976 0 0 1 -2.154-.49l-36.086-17.258a5 5 0 0 1 4.315-9.022l36.085 17.258a5 5 0 0 1 -2.16 9.512z" fill="#1271b1"/><path d="m186.782 459.2a5 5 0 0 1 -2.968-9.026l32.212-23.715a5 5 0 0 1 5.929 8.053l-32.212 23.715a4.979 4.979 0 0 1 -2.961.973zm64.425-47.429a5 5 0 0 1 -2.969-9.026l32.213-23.715a5 5 0 0 1 5.928 8.053l-32.212 23.717a4.978 4.978 0 0 1 -2.96.972zm64.424-47.428a5 5 0 0 1 -2.968-9.027l32.212-23.716a5 5 0 1 1 5.929 8.052l-32.212 23.718a4.98 4.98 0 0 1 -2.961.974z" fill="#1271b1"/><path d="m127.94 114.5a35.183 35.183 0 0 0 -5.42 9.34c-7.38 18.65-18.35 33.35-33.16 43.86a4.825 4.825 0 0 1 -5.57 0c-14.8-10.51-25.78-25.21-33.15-43.85a36.462 36.462 0 0 0 -5.47-9.36l27.01 7.54a53.512 53.512 0 0 0 28.79 0z" fill="#a11d1d"/><ellipse cx="96.169" cy="456.159" fill="#ffcc71" rx="67" ry="23.881"/><ellipse cx="96.169" cy="456.159" fill="#c18c16" rx="33.777" ry="12.039"/><path d="m153.581 365.8a57.253 57.253 0 0 1 -14.9 38.59c-.4.44-.78.88-1.15 1.34a35.183 35.183 0 0 0 -5.42 9.34c-7.38 18.65-18.35 33.35-33.16 43.86a4.825 4.825 0 0 1 -5.57 0c-14.8-10.51-25.78-25.21-33.15-43.85a36.462 36.462 0 0 0 -5.47-9.36q-.66-.84-1.38-1.65a57.406 57.406 0 1 1 100.2-38.27z" fill="#e53434"/><path d="m122.361 365.8c0 .29 0 .59-.02.88a26.19 26.19 0 0 1 -39.99 21.38h-.01a26.2 26.2 0 1 1 40.02-22.26z" fill="#f0f4ff"/><path d="m137.531 405.729a35.183 35.183 0 0 0 -5.42 9.34c-7.38 18.65-18.35 33.35-33.16 43.86a4.825 4.825 0 0 1 -5.57 0c-14.8-10.51-25.78-25.21-33.15-43.85a36.462 36.462 0 0 0 -5.47-9.36l27.01 7.54a53.512 53.512 0 0 0 28.79 0z" fill="#a11d1d"/><ellipse cx="402.141" cy="282.224" fill="#ffcc71" rx="67" ry="23.881"/><ellipse cx="402.141" cy="282.224" fill="#c18c16" rx="33.777" ry="12.039"/><path d="m459.554 191.864a57.253 57.253 0 0 1 -14.9 38.59c-.4.44-.78.88-1.15 1.34a35.183 35.183 0 0 0 -5.42 9.34c-7.38 18.65-18.35 33.35-33.16 43.86a4.825 4.825 0 0 1 -5.57 0c-14.8-10.51-25.78-25.21-33.15-43.85a36.462 36.462 0 0 0 -5.47-9.36q-.66-.84-1.38-1.65a57.406 57.406 0 1 1 100.2-38.27z" fill="#e53434"/><path d="m428.334 191.864c0 .29 0 .59-.02.88a26.19 26.19 0 0 1 -39.99 21.38h-.01a26.2 26.2 0 1 1 40.02-22.26z" fill="#f0f4ff"/><path d="m443.5 231.794a35.183 35.183 0 0 0 -5.42 9.34c-7.38 18.65-18.35 33.35-33.16 43.86a4.825 4.825 0 0 1 -5.57 0c-14.8-10.51-25.78-25.21-33.15-43.85a36.462 36.462 0 0 0 -5.47-9.36l27.01 7.54a53.512 53.512 0 0 0 28.79 0z" fill="#a11d1d"/><g fill="#c0d8ff"><path d="m112.77 74.57c0 .29 0 .59-.02.88a26.19 26.19 0 0 1 -39.99 21.38h-.01a25.728 25.728 0 0 1 -4.33-3.38c12.7 1.488 33.57-1.765 44.06-22.75a26.019 26.019 0 0 1 .29 3.87z"/><path d="m428.334 191.864c0 .29 0 .59-.02.88a26.19 26.19 0 0 1 -39.99 21.38h-.01a25.728 25.728 0 0 1 -4.33-3.38c12.7 1.488 33.57-1.765 44.06-22.75a26.019 26.019 0 0 1 .29 3.87z"/><path d="m122.361 365.8c0 .29 0 .59-.02.88a26.19 26.19 0 0 1 -39.99 21.38h-.01a25.728 25.728 0 0 1 -4.33-3.38c12.7 1.488 33.57-1.765 44.06-22.75a26.019 26.019 0 0 1 .29 3.87z"/></g></svg>