<svg id="Layer_2" enable-background="new 0 0 60 60" height="512" viewBox="0 0 60 60" width="512" xmlns="http://www.w3.org/2000/svg"><g><g><g><g><g><g><path d="m8.005 30h46.698v3.891h-46.698z" fill="#bb7a5b"/></g></g></g></g><g><g><g><g><path d="m54.7033119 34.8643417h-46.6976881c-.5377378 0-.9728684-.4356041-.9728684-.9728661v-3.8914756c0-.537262.4351306-.972868.9728684-.972868h46.6976891c.5377388 0 .9728699.435606.9728699.972868v3.8914757c-.000001.5372619-.4351321.972866-.9728709.972866zm-45.7248201-1.9457359h44.7519531v-1.9457378h-44.7519531z"/></g></g></g></g></g><g><g><g><g><g><path d="m10.275 33.892h42.158v19.457h-42.158z" fill="#a36f49"/></g></g></g></g><g><g><g><g><path d="m52.4326515 54.3217125h-42.1573181c-.5377378 0-.972868-.4351311-.972868-.9728699v-19.4573669c0-.5372658.4351301-.9728699.972868-.9728699h42.1573181c.5377388 0 .9728699.4356041.9728699.9728699v19.4573669c0 .5377388-.4351311.9728699-.9728699.9728699zm-41.1844492-1.9457359h40.2115822v-17.5116349h-40.2115822z"/></g></g></g></g></g><g><g><g><g><g><path d="m35.7146149 19.7039356-4.3643742 5.1481075-4.3555317-5.1481075h-.0007114c-3.39505 0-6.1472836 2.7522335-6.1472836 6.1472836v4.1488895h21.0151901v-4.1488895c0-3.39505-2.7522316-6.1472836-6.1472816-6.1472836z" fill="#52c392"/></g></g></g></g><g><g><g><g><path d="m41.8622093 30.972868h-21.0154819c-.5377369 0-.972868-.435606-.972868-.972868v-4.1489429c0-3.9256763 3.1941242-7.1198006 7.1198025-7.1198006.2859688 0 .5576878.1258831.7429523.3443985l3.6150036 4.2710266 3.6207066-4.2715015c.1843109-.2180405.4560318-.3439236.7420006-.3439236 3.9266281 0 7.1207504 3.1941242 7.1207504 7.1198006v4.1489429c0 .537262-.4351311.972868-.9728661.972868zm-20.0426121-1.945736h19.0697422v-3.176075c0-2.7062645-2.0891953-4.9341717-4.7398834-5.1560116l-4.0567856 4.7859612c-.1843128.2180405-.4560318.3439236-.7420025.3439236-.2859707 0-.5576897-.1258831-.7429523-.3443985l-4.0491848-4.7854862c-2.6497364.2223148-4.7389336 2.4497471-4.7389336 5.1560116z"/></g></g></g></g></g><g><g><g><g><g><circle cx="31.354" cy="11.718" fill="#f4d2b1" r="5.067"/></g></g></g></g><g><g><g><g><path d="m31.3544674 17.7583885c-3.3299847 0-6.0395756-2.7095919-6.0395756-6.0400515s2.7095909-6.04005 6.0395756-6.04005 6.0395756 2.7095904 6.0395756 6.04005-2.7095909 6.0400515-6.0395756 6.0400515zm0-10.1343646c-2.2573586 0-4.0938377 1.8364797-4.0938377 4.0943131s1.8364792 4.0943136 4.0938377 4.0943136 4.0938396-1.8364792 4.0938396-4.0943136-1.8364791-4.0943131-4.0938396-4.0943131z"/></g></g></g></g></g><g><g><g><g><g><g><path d="m30.382 38.168h1.946v7.174h-1.946z"/></g></g></g></g></g><g><g><g><g><g><path d="m30.382 47.127h1.946v1.946h-1.946z"/></g></g></g></g></g></g></g></svg>