<svg height="512" viewBox="0 0 60 60" width="512" xmlns="http://www.w3.org/2000/svg"><g id="Icons"><path d="m15 38h30a0 0 0 0 1 0 0v19a2 2 0 0 1 -2 2h-26a2 2 0 0 1 -2-2v-19a0 0 0 0 1 0 0z" fill="#ecf0f1"/><g fill="#d1d4d1"><rect height="5" rx="1" width="7" x="19" y="50"/><rect height="5" rx="1" width="7" x="34" y="50"/><path d="m29 43h2v16h-2z"/></g><path d="m26 1h8a14 14 0 0 1 14 14v26a2 2 0 0 1 -2 2h-32a2 2 0 0 1 -2-2v-26a14 14 0 0 1 14-14z" fill="#26b99a"/><path d="m37.05 15.54c4.16.7 6.95 1.99 6.95 3.46 0 2.21-6.27 4-14 4s-14-1.79-14-4c0-1.47 2.79-2.76 6.95-3.46z" fill="#805333"/><path d="m37.334 16.567a1.572 1.572 0 0 1 -1.252 1.97 38.583 38.583 0 0 1 -6.082.463 38.583 38.583 0 0 1 -6.082-.463 1.572 1.572 0 0 1 -1.252-1.97l2-7.387a2.938 2.938 0 0 1 3.56-2.09 7.036 7.036 0 0 0 1.774.22 7.032 7.032 0 0 0 1.8-.229 2.922 2.922 0 0 1 3.526 2.1z" fill="#a56a43"/><path d="m32.046 30.21a10.439 10.439 0 0 0 -4.152 0l-.429-1.939a11.923 11.923 0 0 1 5.046 0z" fill="#547580"/><path d="m28 31c0 2.761-2.239 4-5 4s-5-1.239-5-4 1-5 5-5 5 2.239 5 5z" fill="#b0d3f0"/><path d="m42 31c0 2.761-2.239 4-5 4s-5-1.239-5-4 1-5 5-5 5 2.239 5 5z" fill="#b0d3f0"/></g></svg>