<svg id="Layer_1" viewBox="0 0 512 512" xmlns="http://www.w3.org/2000/svg" data-name="Layer 1"><path d="m9.995 217.35h245.991v280.885h-245.991z" fill="#d6853a"/><path d="m255.986 217.35h246.019v280.885h-246.019z" fill="#c97629"/><g fill-rule="evenodd"><path d="m255.986 498.235v-280.885c0-18.652-15.25-33.931-33.931-33.931h-178.129v280.885h178.129c18.68 0 33.931 15.279 33.931 33.931z" fill="#e2e5e7"/><path d="m255.986 498.235v-280.885c0-18.652 15.279-33.931 33.931-33.931h178.157v280.885h-178.157c-18.652 0-33.931 15.279-33.931 33.931z" fill="#cad1d8"/><path d="m119.271 241.501c4.337-118.658 269.093-118.658 273.43 0v70.753h-273.43z" fill="#00ade6"/><path d="m281.611 153.967c57.77 6.605 109.219 35.773 111.09 87.534v70.753h-222.208v-70.753c1.899-51.761 53.348-80.929 111.118-87.534z" fill="#11bef7"/><path d="m255.986 17.876c39.94 0 72.283 32.372 72.283 72.283s-32.343 72.283-72.283 72.283-72.284-32.372-72.284-72.283 32.372-72.283 72.284-72.283z" fill="#e2b698"/><path d="m272.483 19.775c31.975 7.455 55.786 36.142 55.786 70.384s-23.811 62.929-55.786 70.384c-31.975-7.455-55.786-36.142-55.786-70.384s23.811-62.929 55.786-70.384z" fill="#efc9ae"/><path d="m480.093 34.6c27.78 27.78 27.78 72.822 0 100.573-24.009 24.01-60.86 27.269-88.356 9.836l-5.556 1.474-24.577 6.576 6.577-24.576 1.502-5.556c-17.433-27.496-14.173-64.346 9.808-88.328 27.78-27.78 72.822-27.78 100.602 0z" fill="#cad1d8"/><path d="m480.093 34.6c27.78 27.78 27.78 72.822 0 100.573-24.009 24.01-60.86 27.269-88.356 9.836l-5.556 1.474-3.175.85 5.074-18.85 1.474-5.556c-17.433-27.496-14.173-64.346 9.808-88.328 11.367-11.367 25.597-18.057 40.365-20.126 14.769 2.069 28.999 8.759 40.365 20.126z" fill="#e2e5e7"/></g><path d="m437.205 125.847c0 3.288-2.665 5.981-5.981 5.981s-6.009-2.693-6.009-5.981v-56.069c0-3.288 2.693-5.981 6.009-5.981s5.981 2.693 5.981 5.981z" fill="#11bef7"/><path d="m437.205 44.521c0 3.288-2.665 5.981-5.981 5.981s-6.009-2.693-6.009-5.981v-.567c0-3.317 2.693-6.01 6.009-6.01s5.981 2.693 5.981 6.01z" fill="#11bef7"/><path d="m9.995 217.35h22.536v280.885h-22.536z" fill="#c97629"/><path d="m43.926 183.419h22.536v280.885h-22.536z" fill="#cad1d8"/></svg>