<svg id="Capa_1" enable-background="new 0 0 512 512" height="512" viewBox="0 0 512 512" width="512" xmlns="http://www.w3.org/2000/svg"><g><circle cx="256" cy="256" fill="#e06426" r="256"/><path d="m380.684 116.979c-9.628 11.787-54.828 60.155-147.969 60.155l-155.272 99.938s31.224 31.239 31.339 31.355v3.906l45 45 .067 67.667 86.51 86.511c5.176.312 10.387.489 15.641.489 141.385 0 256-114.615 256-256 0-24.224-3.367-47.662-9.655-69.872l-99.127-99.128z" fill="#cf3b0e"/><g><path d="m153.849 301.067h67.6v123.933h-67.6z" fill="#4e5a61"/><path d="m120.049 199.667v90.133h-11.267c-24.847 0-45.067-20.22-45.067-45.067s20.22-45.067 45.067-45.067h11.267z" fill="#6e7b84"/><path d="m120.049 244.733v45.067h-11.267c-24.847 0-45.067-20.22-45.067-45.067z" fill="#4e5a61"/><g><path d="m232.716 177.133h-123.934v135.2h123.933c6.219 0 11.267-5.048 11.267-11.267v-112.666c0-6.219-5.047-11.267-11.266-11.267z" fill="#9dd7f5"/></g><path d="m243.982 244.733v56.333c0 6.219-5.047 11.267-11.267 11.267h-123.933v-67.6z" fill="#7fa7fc"/><path d="m448.284 244.733c0 24.847-20.22 45.067-45.067 45.067h-11.267v-90.133h11.267c24.847 0 45.067 20.22 45.067 45.066z" fill="#9dd7f5"/><path d="m448.284 244.733c0 24.847-20.22 45.067-45.067 45.067h-11.267v-45.067z" fill="#7fa7fc"/><path d="m382.675 114.408v260.65c-24-31.935-77.85-62.725-149.959-62.725v-135.2c105.523 0 149.523-62.094 149.959-62.725z" fill="#e0e6f3"/><path d="m382.675 244.733v130.325c-24-31.935-77.85-62.725-149.959-62.725v-67.6z" fill="#c8cedf"/><g><path d="m380.684 87h22.533v315.467h-22.533z" fill="#f2f7ff"/></g><path d="m380.684 244.733h22.533v157.733h-22.533z" fill="#e0e6f3"/></g></g></svg>