<svg id="Layer_1" enable-background="new 0 0 52 52" height="512" viewBox="0 0 52 52" width="512" xmlns="http://www.w3.org/2000/svg"><g id="_x36_3"><g><g><g><g><path d="m50 33.7v.1c0 .1 0 .2-.1.3.1-.2.1-.3.1-.4z" fill="#1d2943"/></g></g></g></g><g><g><g><g fill="#1d2943"><path d="m50 33.8v-.1z"/><path d="m50 36.5c0 .3-.2.7-.7.9l-15.9 9.2c-.9.5-2.3.5-3.2 0l-27.5-16.1c-.5-.2-.7-.6-.7-.9v-2.8c0-.3.2-.7.7-.9l15.9-9.2c.9-.5 2.3-.5 3.2 0l27.6 16.1c.4.3.7.6.6.9 0 .1 0 .2-.1.4 0-.1.1-.2.1-.3z"/><path d="m50 33.7v.1c0 .1 0 .2-.1.3.1-.2.1-.3.1-.4z"/></g></g></g></g><g><g><g><g><path d="m50 36.5c0 .3-.2.7-.7.9l-15.9 9.2c-.9.5-2.3.5-3.2 0l-27.5-16.1c-.5-.2-.7-.6-.7-.9v-2.8c0 .3.2.7.6.9l27.6 16.1c.9.5 2.3.5 3.2 0l15.9-9.2c.4-.3.7-.6.7-.9z" fill="#4c5c75"/></g></g></g></g><g><g><g><g><path d="m2.7 25.9c-.9.5-.9 1.3 0 1.8l27.6 16.1c.9.5 2.3.5 3.2 0l15.9-9.2c.9-.5.9-1.3 0-1.8l-27.7-16.1c-.9-.5-2.3-.5-3.2 0z" fill="#1d2943"/></g></g></g></g><g><g><g><g><path d="m47.1 33.3-15.9 9.2c-.4.3-1.1.3-1.6 0l-26.1-15.2c-.4-.3-.4-.7 0-.9l15.9-9.2c.4-.3 1.1-.3 1.6 0l26.1 15.1c.4.3.4.8 0 1z" fill="#fff"/></g></g></g></g><g><g><g><g><g><path d="m5.8 27.2c-.4.2-1 .2-1.3 0-.4-.2-.4-.6 0-.8s1-.2 1.3 0c.4.2.4.6 0 .8z" fill="#111d33"/></g></g></g></g></g><g><g><g><g><g><path d="m4.8 26.6c-.2.1-.2.3 0 .4s.5.1.7 0 .2-.3 0-.4-.5-.1-.7 0z" fill="#111d33"/></g></g></g></g><g><g><g><g><path d="m5.8 26.4c.4.2.4.6 0 .8s-1 .2-1.3 0c-.4-.2-.4-.6 0-.8.3-.2.9-.2 1.3 0zm-.3.6c.2-.1.2-.3 0-.4s-.5-.1-.7 0-.2.3 0 .4.5.1.7 0z" fill="#4c5c75"/></g></g></g></g></g><g><g><g><g><g><g><g><path d="m35.2 43.5c.3-.2.6 0 .6.3 0 .4-.2.8-.6 1-.3.2-.6 0-.6-.3.1-.4.3-.8.6-1z" fill="#1d2943"/></g></g></g></g><g><g><g><g><path d="m37.2 42.4c.3-.2.6 0 .6.3 0 .4-.2.8-.6 1-.3.2-.6 0-.6-.3.1-.4.3-.9.6-1z" fill="#1d2943"/></g></g></g></g><g><g><g><g><path d="m39.2 41.2c.3-.2.6 0 .6.3 0 .4-.2.8-.6 1-.3.2-.6 0-.6-.3.1-.4.3-.8.6-1z" fill="#1d2943"/></g></g></g></g></g><g><g><g><g><g><path d="m44 38.4c.3-.2.6 0 .6.3 0 .4-.2.8-.6 1-.3.2-.6 0-.6-.3.1-.4.3-.8.6-1z" fill="#1d2943"/></g></g></g></g><g><g><g><g><path d="m46 37.3c.3-.2.6 0 .6.3 0 .4-.2.8-.6 1-.3.2-.6 0-.6-.3.1-.4.3-.8.6-1z" fill="#1d2943"/></g></g></g></g><g><g><g><g><path d="m48 36.1c.3-.2.6 0 .6.3 0 .4-.2.8-.6 1-.3.2-.6 0-.6-.3.1-.4.3-.8.6-1z" fill="#1d2943"/></g></g></g></g></g></g><g><g><g><g><path d="m42.8 39-.4 1.9-1.6.9-.4-1.4.6-.4z" fill="#111d33"/></g></g></g></g><g><g><g><g><path d="m41 40-.6.4.4 1.4 1.6-.9z" fill="#1d2943"/></g></g></g><g><g><g><path d="m42.4 40.9.4-1.9-1.8 1z" fill="#111d33"/></g></g></g></g></g><g><g enable-background="new"><g><g><g><g fill="#dedffb"><path d="m5.9 30.9c0 .2-.1.3-.1.3l-.3.2c-.1.1-.2 0-.3 0l-1.7-1c-.3-.2-.5-.5-.5-.8 0-.2.1-.3.2-.3l.2-.3h.3l1.7 1c.3.2.5.6.5.9z"/><path d="m9 32.7c0 .1 0 .2-.1.3l-.3.2c-.1 0-.2 0-.4 0l-1.3-.7c-.3-.2-.5-.5-.5-.8 0-.1 0-.3.1-.3l.3-.2c.1-.1.2 0 .3 0l1.3.7c.4.1.6.5.6.8z"/></g></g></g></g></g></g><g><g enable-background="new"><g><g><g><g><path d="m5.9 30.9c0 .1-.1.3-.1.3l-.3.2c.1-.1.1-.2.1-.3 0-.3-.2-.7-.5-.8l-1.7-1c-.1-.1-.3-.1-.3 0l.3-.3c.1-.1.2 0 .3 0l1.7 1c.3.2.5.6.5.9z" fill="#dedffb"/></g></g></g></g><g><g><g><g><path d="m5.1 30.2c.3.2.5.5.5.8s-.2.4-.5.3l-1.7-1c-.3-.2-.5-.5-.5-.8s.2-.4.5-.3z" fill="#f3f1fc"/></g></g></g></g></g><g enable-background="new"><g><g><g><g><path d="m9 32.7c0 .1 0 .2-.1.3l-.3.2c.1-.1.1-.2.1-.3 0-.3-.2-.7-.5-.8l-1.3-.7c-.1-.1-.3-.1-.3 0l.3-.2c.1-.1.2 0 .3 0l1.3.7c.3.1.5.5.5.8z" fill="#dedffb"/></g></g></g></g><g><g><g><g><path d="m8.2 32c.3.2.5.5.5.8s-.2.4-.5.3l-1.3-.7c-.3-.2-.5-.5-.5-.8s.2-.4.5-.3z" fill="#f3f1fc"/></g></g></g></g></g></g><g><g><g><g><path d="m10.2 27.4c-.3-.2-.6-.3-1-.3-.3 0-.6 0-.9.2-.3.1-.4.3-.3.5s.2.4.6.6c.3.2.6.3 1 .3.3 0 .6 0 .9-.2.3-.1.4-.3.3-.5-.1-.3-.3-.5-.6-.6zm-.6 1c-.2 0-.5-.1-.7-.3-.2-.1-.4-.3-.4-.4s0-.2.2-.3.4-.1.6-.1.5.1.7.3c.2.1.4.3.4.4s0 .2-.2.3-.4.1-.6.1z" fill="#c9cee2"/></g></g></g><g><g><g><path d="m12.3 27.4c.3-.1.4-.3.3-.5s-.2-.4-.6-.6c-.3-.2-.6-.3-1-.3-.3 0-.6 0-.9.2-.3.1-.4.3-.3.5s.2.4.6.6c.3.2.6.3 1 .3.3 0 .6-.1.9-.2zm-.9-.1c-.2 0-.5-.1-.7-.3-.2-.1-.4-.3-.4-.4s0-.2.2-.3.4-.1.6-.1.5.1.7.3c.2.1.4.3.4.4s0 .2-.2.3-.3.2-.6.1z" fill="#c9cee2"/></g></g></g><g><g><g><path d="m21.9 21.8-.9.6h-.1-.1s-.1 0-.1-.1c0 0 0-.1.1-.1l.2-.2-1.4-.8-.1.2s0 0-.1 0h-.1-.1c-.1 0-.1-.1 0-.1l.2-.3s0 0 .1-.1h.1.1s.1 0 .1 0l1.6.9.3-.2h.1c-.1.1 0 .1.1.2-.1-.1 0-.1 0 0z" fill="#c9cee2"/></g></g></g><g><g><g><path d="m21.3 20.9c.3.2.6.3 1 .3.3 0 .6 0 .9-.2.3-.1.4-.3.3-.5s-.2-.4-.6-.6c-.3-.2-.6-.3-1-.3-.3 0-.6 0-.9.2-.3.1-.4.3-.3.5.1.3.3.5.6.6zm.6-1c.2 0 .5.1.7.3.2.1.4.3.4.4s0 .2-.2.3-.4.1-.6.1-.5-.1-.7-.3c-.2-.1-.4-.3-.4-.4s0-.2.2-.3.4-.1.6-.1z" fill="#c9cee2"/></g></g></g><g><g><g><path d="m19.9 26.9s-.1.1 0 0l-.9.6h-.1-.1s-.1 0-.1-.1c0 0 0-.1.1-.1l.3-.2-1.4-.8-.1.2s0 0-.1 0h-.1-.1c-.1 0-.1-.1 0-.1l.2-.3s0 0 .1-.1h.1.1.1l1.6.9.3-.2h.1c-.2.1-.1.1 0 .2-.1-.1 0 0 0 0z" fill="#c9cee2"/></g></g></g><g><g><g><path d="m24.8 22.9c.3.2.6.3 1 .3.3 0 .6 0 .9-.2.3-.1.4-.3.3-.5s-.2-.4-.6-.6c-.3-.2-.6-.3-1-.3-.3 0-.6 0-.9.2-.3.1-.4.3-.3.5.1.3.2.5.6.6zm.6-1c.2 0 .5.1.7.3.2.1.4.3.4.4s0 .2-.2.3c-.1.1-.3.2-.6.1-.2 0-.5-.1-.7-.3-.2-.1-.4-.3-.4-.4s0-.2.2-.3c.1-.1.3-.1.6-.1z" fill="#c9cee2"/></g></g></g><g><g><g><path d="m17.7 23c.3.2.6.3 1 .3.3 0 .6 0 .9-.2.3-.1.4-.3.3-.5s-.2-.4-.6-.6c-.3-.2-.6-.3-1-.3-.3 0-.6 0-.9.2-.3.1-.4.3-.3.5.1.3.3.5.6.6zm.6-1c.2 0 .5.1.7.3.2.1.4.3.4.4s0 .2-.2.3-.4.1-.6.1-.5-.1-.7-.3c-.2-.1-.4-.3-.4-.4s0-.2.2-.3.4-.1.6-.1z" fill="#c9cee2"/></g></g></g><g><g><g><path d="m22.7 22.9c-.3.1-.4.3-.3.5s.2.4.6.6c.3.2.6.3 1 .3.3 0 .6 0 .9-.2.3-.1.4-.3.3-.5s-.2-.4-.6-.6c-.3-.2-.6-.3-1-.3s-.6.1-.9.2zm.8.1c.1 0 .2 0 .4.1-.1-.1-.2-.1-.4-.1s-.4 0-.6.1c0 0-.1.1-.1.1-.1.1-.1.1-.1.2 0-.1 0-.1.1-.2 0 0 .1-.1.1-.1.2-.1.4-.2.6-.1zm1.2.7c0-.1-.1-.1-.2-.2.1 0 .2.1.2.2zm-.2.3c-.2.1-.4.1-.6.1s-.5-.1-.7-.3c-.2-.1-.4-.3-.4-.4s0-.2.2-.3.4-.1.6-.1.5.1.7.3c.2.1.4.3.4.4s0 .2-.2.3zm-1.8-.7c0 .1.1.1 0 0 .1.1 0 .1 0 0zm1.2.8c-.2 0-.4-.1-.5-.2.2.1.4.2.5.2z" fill="#c9cee2"/></g></g></g><g><g><g><path d="m18.2 23.9-.9.6h-.1s-.1 0-.1 0-.1 0-.1-.1c0 0 0-.1.1-.1l.3-.2-1.4-.8-.1.2s0 0-.1 0h-.1-.1c-.1 0-.1-.1 0-.1l.2-.3s0 0 .1-.1h.1.1.1l1.6.9.3-.2h.1c-.1 0-.1.1 0 .2 0-.1 0-.1 0 0z" fill="#c9cee2"/></g></g></g><g><g><g><path d="m21.1 25c.3.2.6.3 1 .3.3 0 .6 0 .9-.2.3-.1.4-.3.3-.5s-.2-.4-.6-.6c-.3-.2-.6-.3-1-.3-.3 0-.6 0-.9.2-.3.1-.4.3-.3.5.1.3.3.5.6.6zm.6-1c.2 0 .5.1.7.3.2.1.4.3.4.4s0 .2-.2.3-.4.1-.6.1-.5-.1-.7-.3c-.2-.1-.4-.3-.4-.4s0-.2.2-.3.4-.1.6-.1z" fill="#c9cee2"/></g></g></g><g><g><g><path d="m14.1 25.1c.3.2.6.3 1 .3.3 0 .6 0 .9-.2.3-.1.4-.3.3-.5s-.2-.4-.6-.6c-.3-.2-.6-.3-1-.3-.3 0-.6 0-.9.2-.3.1-.4.3-.3.5.1.3.3.5.6.6zm.6-1c.2 0 .5.1.7.3.2.1.4.3.4.4s0 .2-.2.3-.4.1-.6.1-.5-.1-.7-.3c-.2-.1-.4-.3-.4-.4s0-.2.2-.3c.1-.1.3-.1.6-.1z" fill="#c9cee2"/></g></g></g><g><g><g><path d="m19.1 25c-.3.1-.4.3-.3.5s.2.4.6.6c.3.2.6.3 1 .3.3 0 .6 0 .9-.2.3-.1.4-.3.3-.5s-.2-.4-.6-.6c-.3-.2-.6-.3-1-.3s-.7.1-.9.2zm1.8 1.1c-.2.1-.4.1-.6.1s-.5-.1-.7-.3c-.2-.1-.4-.3-.4-.4s0-.2.2-.3.4-.1.6-.1.5.1.7.3c.2.1.4.3.4.4s0 .2-.2.3z" fill="#c9cee2"/></g></g></g><g><g><g><path d="m14.6 25.9c0 .1 0 .1 0 0l-.9.6h-.1s-.1 0-.1 0-.1 0-.1-.1c0 0 0-.1.1-.1l.3-.2-1.4-.8-.1.2s0 0-.1 0h-.1-.1c-.1 0-.1-.1 0-.1l.2-.3s0 0 .1-.1h.1.1.1l1.4 1 .3-.2h.1c.1 0 .1.1.2.1z" fill="#c9cee2"/></g></g></g><g><g><g><path d="m14.4 30c0 .1 0 .1 0 0l-.9.6h-.1-.1s-.1 0-.1-.1c0 0 0-.1.1-.1l.3-.2-1.4-.8-.2.3h-.1-.1c-.1 0-.1-.1 0-.1l.2-.3s0 0 .1-.1h.1.1.1l1.6.9.3-.2h.1c-.1 0-.1 0 0 .1z" fill="#c9cee2"/></g></g></g><g><g><g><path d="m18 27.9c0 .1 0 .1 0 0l-.9.6h-.1-.1s-.1 0-.1-.1c0 0 0-.1.1-.1l.3-.2-1.4-.8-.1.2s0 0-.1 0h-.1-.1c-.1 0-.1-.1 0-.1l.2-.3s0 0 .1-.1h.1.1.1l1.6.9.3-.2h.1c-.1.1 0 .2 0 .2z" fill="#c9cee2"/></g></g></g><g><g><g><path d="m16.2 29-.9.6h-.1-.1s-.1 0-.1-.1c0 0 0-.1.1-.1l.3-.2-1.4-.8-.1.2s0 0-.1 0h-.1-.1c-.1 0-.1-.1 0-.1l.2-.3s0 0 .1-.1h.1.1.1l1.6.9.3-.2h.1c-.1.1-.1.1 0 .2 0-.1 0 0 0 0z" fill="#c9cee2"/></g></g></g><g><g><g><g><path d="m43.8 32.4s0 .1 0 0l-1 .6h-.1-.1s-.1 0-.1-.1c0 0 0-.1.1-.1l.3-.2-1.4-.8-.1.2s0 0-.1 0h-.1-.1c-.1 0-.1-.1 0-.1l.2-.3s0 0 .1-.1h.1.1.1l1.6.9.3-.2h.1c-.1.1 0 .1.1.2z" fill="#c9cee2"/></g></g></g><g><g><g><path d="m42 33.5-1 .6h-.1-.1s-.1 0-.1-.1c0 0 0-.1.1-.1l.3-.2-1.4-.8-.1.2s0 0-.1.1h-.1-.1c-.1 0-.1-.1 0-.1l.2-.3s0 0 .1-.1h.1.1.1l1.6.9.3-.2h.1c-.1 0 0 0 .1.1 0-.1 0-.1 0 0z" fill="#c9cee2"/></g></g></g><g><g><g><path d="m40.1 34.4h-.1-.1l-.3.2-1.6-.9h-.1c-.1 0-.1 0-.1 0h-.1s0 0-.1.1l-.2.3v.1h.1.1s0 0 .1-.1l.1-.2 1.4.8-.2.3s-.1 0-.1.1c0 0 0 .1.1.1h.1.1l.9-.5c0-.1.1-.2 0-.3.1.1 0 .1 0 0zm-.2 0h.1.1-.1c-.1 0-.1 0-.1 0l-.3.2zm-2.1-.8c-.1 0-.1 0-.1 0zm1.2 1.5c-.1 0-.1 0 0 0z" fill="#c9cee2"/></g></g></g><g><g><g><path d="m32.6 35c.3-.1.4-.3.3-.5s-.2-.4-.6-.6c-.3-.2-.6-.3-1-.3-.3 0-.6 0-.9.2-.3.1-.4.3-.3.5s.2.4.6.6c.3.2.6.3 1 .3.3 0 .6-.1.9-.2zm-1.8-1.1c.2-.1.4-.1.6-.1s.5.1.7.3c.2.1.4.3.4.4.1.1 0 .2-.2.3s-.4.1-.6.1-.5-.1-.7-.3c-.2-.1-.4-.3-.4-.4-.1-.1 0-.2.2-.3z" fill="#c9cee2"/></g></g></g><g><g><g><path d="m37.6 34.9c-.3-.2-.6-.3-1-.3-.3 0-.6 0-.9.2-.3.1-.4.3-.3.5s.2.4.6.6c.3.2.6.3 1 .3.3 0 .6 0 .9-.2.3-.1.4-.3.3-.5-.1-.3-.3-.4-.6-.6zm0 .9c-.2.1-.4.1-.6.1s-.5-.1-.7-.3c-.2-.1-.4-.3-.4-.4-.1-.1 0-.2.2-.3s.4-.1.6-.1.5.1.7.3c.2.1.4.3.4.4s-.1.2-.2.3z" fill="#c9cee2"/></g></g></g><g><g><g><path d="m28.9 35.9c.3.2.6.3 1 .3.3 0 .6 0 .9-.2.3-.1.4-.3.3-.5s-.2-.4-.6-.6c-.3-.2-.6-.3-1-.3-.3 0-.6 0-.9.2-.3.1-.4.3-.3.5s.3.4.6.6zm.6-1c.2 0 .5.1.7.3.2.1.4.3.4.4s0 .2-.2.3c-.1.1-.3.1-.5.1s-.5-.1-.7-.3c-.2-.1-.4-.3-.4-.4s0-.2.2-.3c.1-.1.3-.2.5-.1z" fill="#c9cee2"/></g></g></g><g><g><g><path d="m35.8 35.9c-.3-.2-.6-.3-1-.3s-.6 0-.9.2c-.3.1-.4.3-.3.5s.2.4.6.6c.3.2.6.3 1 .3.3 0 .6 0 .9-.2.3-.1.4-.3.3-.5s-.3-.4-.6-.6zm-.6 1c-.2 0-.5-.1-.7-.3-.2-.1-.4-.3-.4-.4-.1-.1 0-.2.2-.3s.4-.1.6-.1.5.1.7.3c.2.1.4.3.4.4.1.1 0 .2-.2.3s-.4.2-.6.1z" fill="#c9cee2"/></g></g></g><g><g><g><path d="m33.9 37c-.3-.2-.6-.3-1-.3-.3 0-.6 0-.9.2-.3.1-.4.3-.3.5s.2.4.6.6c.3.2.6.3 1 .3.3 0 .6 0 .9-.2.3-.1.4-.3.3-.5-.1-.3-.2-.4-.6-.6zm-.5 1c-.2 0-.5-.1-.7-.3-.2-.1-.4-.3-.4-.4-.1-.1 0-.2.2-.3s.4-.1.6-.1.5.1.7.3c.2.1.4.3.4.4s0 .2-.2.3-.4.1-.6.1z" fill="#c9cee2"/></g></g></g><g><g><g><path d="m32.1 38c-.3-.2-.6-.3-1-.3-.3 0-.6 0-.9.2-.1.1-.2.3-.2.5.1.2.2.4.6.6.3.2.6.3 1 .3.3 0 .6 0 .9-.2.3-.1.4-.3.3-.5-.2-.2-.4-.4-.7-.6zm-.6 1c-.2 0-.5-.1-.7-.3-.2-.1-.4-.3-.4-.4s0-.2.2-.3.4-.1.6-.1.5.1.7.3c.2.1.4.3.4.4s0 .2-.2.3c-.1.1-.3.2-.6.1z" fill="#c9cee2"/></g></g></g><g><g><g><path d="m38 30.7c.3.2.6.3 1 .3.3 0 .6 0 .9-.2.3-.1.4-.3.3-.5s-.2-.4-.6-.6c-.3-.2-.6-.3-1-.3-.3 0-.6 0-.9.2-.3.1-.4.3-.3.5s.3.4.6.6zm.6-1.1c.2 0 .5.1.7.3.2.1.4.3.4.4.1.1 0 .2-.2.3s-.4.1-.6.1-.5-.1-.7-.3c-.2-.1-.4-.3-.4-.4s0-.2.2-.3.4-.1.6-.1z" fill="#c9cee2"/></g></g></g><g><g><g><path d="m38.5 31.5-.9.6h-.1-.1s-.1 0-.1-.1c0 0 0-.1.1-.1l.3-.2-1.4-.8-.1.2s0 0-.1 0h-.1-.1c-.1 0-.1-.1 0-.1l.2-.3s0 0 .1-.1h.1.1.1l1.6.9.3-.2h.1c-.1.1-.1.1 0 .2 0-.1 0-.1 0 0z" fill="#c9cee2"/></g></g></g><g><g><g><path d="m36.2 32.9c.3-.1.4-.3.3-.5s-.2-.4-.6-.6c-.3-.2-.6-.3-1-.3-.3 0-.6 0-.9.2-.3.1-.4.3-.3.5s.2.4.6.6c.3.2.6.3 1 .3.3 0 .6-.1.9-.2zm-1.8-1.1c.2-.1.4-.1.6-.1s.5.1.7.3c.2.1.4.3.4.4s0 .2-.2.3-.4.1-.6.1-.5-.1-.7-.3c-.2-.1-.4-.3-.4-.4s0-.2.2-.3z" fill="#c9cee2"/></g></g></g><g><g><g><path d="m33.6 34.1s.1 0 0 0c.1.1.1.1.2.1h.1l.9-.5s.1 0 .1-.1c0 0 0-.1-.1-.1s-.1 0-.1 0c-.1 0-.1 0-.1 0l-.3.2-1.6-.9h-.1c-.1 0-.1 0-.1 0h-.1s0 0-.1.1l-.2.3v.1h.1.1.1l.1-.2 1.4.8-.3.2c.1-.1 0-.1 0 0zm1.3-.5c0-.1 0-.1 0 0zm-.2-.1s.1 0 0 0zm-.1 0-.3.2zm-1.9-.8 1 .6-1-.6c-.1 0 0 0 0 0zm1.4 1.1-.4.2v.1s0 0 0-.1z" fill="#c9cee2"/></g></g></g><g><g><g><path d="m27.7 37.7c0 .1-.1.1 0 0l-.9.6h-.1-.1s-.1 0-.1-.1c0 0 0-.1.1-.1l.3-.2-1.4-.8-.1.2h-.1-.1c-.1 0-.1-.1 0-.1l-.2-.2s0 0 .1-.1h.1.1.1l1.6.9.3-.2h.1c.1 0 .2 0 .3.1-.1 0 0 0 0 0z" fill="#c9cee2"/></g></g></g><g><g><g><path d="m29.5 36.7s-.1.1 0 0l-.9.6h-.1-.1s-.1 0-.1-.1c0 0 0-.1.1-.1l.3-.2-1.4-.8-.3.3h-.1-.1c-.1 0-.1-.1 0-.1l.2-.3s0 0 .1-.1h.1.1.1l1.6.9.3-.2h.1c-.1 0 0 0 .1.1-.1-.1 0 0 0 0z" fill="#c9cee2"/></g></g></g><g><g><g><path d="m31.1 39.7c0 .1 0 .1 0 0l-.9.6h-.1-.1s-.1 0-.1-.1c0 0 0-.1.1-.1l.3-.2-1.4-.8-.1.2h-.1-.1c-.1 0-.1-.1 0-.1l.2-.3s0 0 .1-.1h.1.1.1l1.6.9.3-.2h.1c-.2.1-.2.1-.1.2z" fill="#c9cee2"/></g></g></g></g></g><g><g><g><g><path d="m20.5 26.9c-2.7 1.5-2.7 4 0 5.6 2.7 1.5 7 1.5 9.6 0 2.7-1.5 2.7-4 0-5.6-2.6-1.6-6.9-1.6-9.6 0z" fill="#f3f1fc"/></g></g></g><g><g><g><g><path d="m35.3 8.2c-.7.4-1.3.4-1.7.2l-2.6-1.5c-1.4.6-2.8 1.4-4.2 2.2-1.9 1.1-3.8 2.4-5.7 3.8 0 2.2-.8 3.9-2.5 5-.4 8 1.1 11.6 3.4 13.1l-1.7-1c-2.4-1.4-4-5-3.6-13.3 1.7-1.1 2.5-2.8 2.5-5 1.9-1.4 3.8-2.7 5.7-3.8s3.9-2.1 5.9-2.9l1.9 1.1c-.2.1-.4.2-.6.2z" fill="#50b069"/></g></g></g><g><g><g><path d="m33.6 8.4-3.4-2c.4.2 1 .2 1.7-.2l3.4 2c-.8.4-1.3.4-1.7.2z" fill="#5ec363"/></g></g></g><g><g><g><path d="m22.3 31.1-1.9-1.1c-2.4-1.4-4-5-3.6-13.3l1.9 1.1c-.5 8.3 1.1 11.9 3.6 13.3z" fill="#50b069"/></g></g></g><g><g><g><path d="m18.6 17.8-1.9-1.1c1.7-1.1 2.5-2.8 2.5-5l1.9 1.1c0 2.2-.8 3.9-2.5 5z" fill="#5ec363"/></g></g></g><g><g><g><path d="m32.7 6.1c-2 .8-4 1.8-5.9 2.9s-3.8 2.4-5.7 3.8l-1.9-1.1c1.9-1.4 3.8-2.7 5.7-3.8s3.9-2.1 5.9-2.9z" fill="#72d561"/></g></g></g><g><g><g><path d="m26.8 9c1.9-1.1 3.9-2.1 5.9-2.9.1 2.1.9 2.9 2.6 2.1.4 10.8-2.3 17.5-8.3 23.7-4.6.3-9-.9-8.4-14.1 1.7-1.1 2.5-2.8 2.5-5 1.9-1.4 3.8-2.7 5.7-3.8z" fill="#78e75a"/></g></g></g><g><g><g><path d="m26.8 9.9c1.7-1 3.4-1.8 5.1-2.6.3 2.2 1.5 2.3 2.5 2.1.3 9.3-1.8 15.4-7.4 21.3-4 .2-8-.8-7.6-12.6 1-.9 2.2-2.4 2.5-5 1.6-1.2 3.3-2.3 4.9-3.2z" fill="#5ec363"/></g></g></g><g><g><g><g><path d="m26.8 11.4c1.3-.7 2.6-1.4 3.9-2 .5 1.3 1.4 1.8 2.2 1.8.1 7.7-1.6 12.6-5.9 17.5-3.2 0-6.2-1.2-6.1-10.4 1.1-1.3 1.9-2.9 2.3-4.5 1.2-.9 2.4-1.7 3.6-2.4z" fill="#fff"/></g></g></g></g><g><g><g><g><path d="m26.9 15.1c1.9-1.1 3.4-.2 3.4 2s-1.5 4.8-3.4 5.9-3.4.2-3.4-2 1.5-4.8 3.4-5.9z" fill="#f45170"/></g></g></g></g><g><g><g><g><g><path d="m28.9 17.2-2.3 4c-.1.2-.3.4-.5.3l-1.1-.7c-.2-.1-.1-.4 0-.6s.3-.4.5-.3l.8.5 2-3.5c.1-.2.4-.4.5-.3.3.1.2.4.1.6z" fill="#fff"/></g></g></g></g></g></g></g></g></svg>