<svg height="511pt" viewBox="0 -64 511.99982 511" width="511pt" xmlns="http://www.w3.org/2000/svg"><path d="m342.421875 285.109375-42.15625-42.15625c-14.386719-14.386719-38.128906-12.664063-50.328125 3.492187l-19.792969 26.210938c-7.042969 9.328125-20.222656 12.570312-30.605469 6.574219-39.441406-22.753907-72.316406-55.628907-95.070312-95.070313-5.996094-10.398437-2.753906-23.5625 6.574219-30.605468l26.210937-19.792969c16.203125-12.234375 17.835938-35.984375 3.492188-50.328125l-42.15625-42.15625c-15.988282-15.992188-42.007813-15.988282-57.996094 0-32.953125 32.953125-47.082031 79.894531-37.792969 125.5625 21.980469 108.058594 106.003907 192.082031 214.058594 214.058594 45.277344 9.207031 92.328125-4.554688 125.5625-37.792969 15.992187-15.988281 15.992187-42.003907 0-57.996094zm0 0" fill="#66bb6a"/><path d="m100.75 63.433594c14.339844 14.34375 12.707031 38.09375-3.496094 50.328125l-26.207031 19.792969c-9.332031 7.046874-12.570313 20.210937-6.578125 30.605468 22.753906 39.441406 55.628906 72.320313 95.070312 95.070313 4.410157 2.546875 9.320313 3.414062 14.054688 2.867187-27.976562-20.980468-51.570312-47.5-69.125-77.9375-5.996094-10.398437-2.753906-23.5625 6.574219-30.605468l26.210937-19.792969c16.203125-12.234375 17.835938-35.984375 3.492188-50.328125l-42.15625-42.15625c-8.726563-8.726563-20.441406-12.679688-31.878906-11.882813zm0 0" fill="#388e3c"/><path d="m342.421875 285.109375-42.15625-42.15625c-8.058594-8.058594-19.050781-11.058594-29.304687-9.304687l31.464843 31.464843c15.988281 15.988281 15.988281 42.003907 0 57.992188-33.238281 33.238281-80.289062 47.003906-125.5625 37.792969-16.539062-3.363282-32.511719-8.1875-47.789062-14.320313 26.566406 16.121094 56.144531 27.886719 87.785156 34.320313 45.277344 9.207031 92.328125-4.554688 125.5625-37.792969 15.992187-15.988281 15.992187-42.003907 0-57.996094zm0 0" fill="#388e3c"/><path d="m180.511719 11.738281v187.691407c0 6.203124 5.027343 11.226562 11.226562 11.226562h309.035157c6.199218 0 11.226562-5.027344 11.226562-11.226562v-187.691407c0-6.199219-5.027344-11.226562-11.226562-11.226562h-309.035157c-6.199219 0-11.226562 5.027343-11.226562 11.226562zm0 0" fill="#ffb300"/><path d="m500.773438.511719h-28.773438v148.007812c0 23.273438-18.863281 42.136719-42.136719 42.136719h-249.351562v8.773438c0 6.203124 5.027343 11.226562 11.226562 11.226562h309.035157c6.199218 0 11.226562-5.027344 11.226562-11.226562v-187.691407c0-6.199219-5.027344-11.226562-11.226562-11.226562zm0 0" fill="#ff8f00"/><path d="m355.996094 109.183594 152.09375-105.949219c-1.964844-1.691406-4.519532-2.722656-7.316406-2.722656h-309.035157c-2.796875 0-5.351562 1.03125-7.316406 2.722656l152.09375 105.949219c5.851563 4.078125 13.625 4.078125 19.480469 0zm0 0" fill="#ffca28"/><path d="m502.917969.722656c-1.53125-.296875.207031-.210937-30.917969-.210937v27.863281l36.089844-25.140625c-1.445313-1.242187-3.253906-2.140625-5.171875-2.511719zm0 0" fill="#ffb300"/><path d="m191.738281 210.65625h309.035157c2.796874 0 5.351562-1.03125 7.316406-2.722656l-146.925782-102.347656-5.167968 3.597656c-5.851563 4.078125-13.625 4.078125-19.480469 0l-5.167969-3.597656-146.925781 102.347656c1.964844 1.691406 4.519531 2.722656 7.316406 2.722656zm0 0" fill="#ff8f00"/><path d="m461.964844 175.804688c-7.730469 9.082031-19.238282 14.855468-32.101563 14.855468h-220.640625l-24.800781 17.273438c.523437.417968.882813.730468 1.675781 1.191406 1.21875.714844 2.636719 1.222656 4.15625 1.421875.257813.035156.652344.109375 1.484375.109375 322.566407 0 309.773438.25 312.191407-.457031 1.207031-.355469 2.394531-.929688 3.484374-1.730469.140626-.105469.578126-.4375.675782-.535156zm0 0" fill="#ff6f00"/></svg>