<svg enable-background="new 0 0 512 512" height="512" viewBox="0 0 512 512" width="512" xmlns="http://www.w3.org/2000/svg" xmlns:xlink="http://www.w3.org/1999/xlink"><linearGradient id="SVGID_1_" gradientTransform="matrix(1 0 0 -1 0 514)" gradientUnits="userSpaceOnUse" x1="256" x2="256" y1="-196.862" y2="571.053"><stop offset="0" stop-color="#cadfef"/><stop offset="1" stop-color="#eff4f9"/></linearGradient><g id="_x31_23_Information"><g><circle cx="256" cy="256" fill="url(#SVGID_1_)" r="256"/><g><g><path d="m392.27 119.624c-54.614-54.614-143.477-54.607-198.089 0-53.312 53.313-54.552 139.244-3.78 194.112l-14.938 14.936c-9.685-6.134-22.684-4.997-31.122 3.438l-64.175 64.175c-2.143 2.143-2.143 5.614 0 7.757s5.614 2.143 7.757 0l64.175-64.175c5.491-5.489 14.432-5.496 19.927 0 5.493 5.493 5.493 14.436 0 19.929l-64.175 64.174c-2.143 2.143-2.143 5.614 0 7.757s5.614 2.143 7.757 0l64.175-64.175c8.436-8.438 9.571-21.438 3.437-31.122l14.938-14.937c26.766 24.771 60.902 37.18 95.066 37.18 123.915.001 187.399-150.698 99.047-239.049zm-7.757 190.332c-50.332 50.336-132.238 50.339-182.575 0-81.394-81.397-22.958-220.325 91.286-220.325 114.171 0 172.767 138.847 91.289 220.325z" fill="#3f3f3f"/></g><g><path d="m335.738 275.374c1.785 8.072 1.838 8.254-5.131 11.514-14.396 6.735-29.258 12.02-45.263 13.27-2.726.213-5.532.154-8.235-.239-7.624-1.109-10.921-5.585-9.161-13.11 2.379-10.168 5.247-20.223 7.928-30.32 3.281-12.358 6.638-24.695 9.861-37.068 2.644-10.15-1.172-15.544-11.635-14.767-7.803.579-15.467 3.031-23.306 4.673-2.014-6.52-1.879-7.149 5.166-10.519 13.849-6.625 28.26-11.564 43.604-13.207 3.636-.389 7.454-.228 11.053.425 6.772 1.229 9.789 5.588 8.188 12.269-2.69 11.225-5.913 22.322-8.87 33.484-3.062 11.562-6.111 23.128-9.097 34.709-2.517 9.761 1.083 14.576 11.203 14.506 4.079-.028 8.224-.708 12.204-1.656 3.84-.914 7.505-2.556 11.491-3.964z" fill="#7cc558"/></g><g><path d="m289.167 157.476c-.099-11.256 8.764-20.306 19.997-20.418 11.468-.115 20.553 8.832 20.577 20.265.023 11.11-9.086 20.261-20.216 20.309-11.143.047-20.26-8.979-20.358-20.156z" fill="#7cc558"/></g></g></g></g></svg>