<svg id="Layer_1" enable-background="new 0 0 512 512" viewBox="0 0 512 512" xmlns="http://www.w3.org/2000/svg"><g clip-rule="evenodd" fill-rule="evenodd"><g><g><path d="m284.409 299.155v6.142c0 7.373-6.033 13.406-13.405 13.406h-26.089c-7.373 0-13.406-6.032-13.406-13.406v-6.142h-147.031c-4.151 0-7.536-3.385-7.536-7.536v-245.154c0-4.151 3.385-7.536 7.536-7.536h346.677c4.151 0 7.536 3.385 7.536 7.536v245.153c0 4.151-3.385 7.536-7.536 7.536h-146.746z" fill="#a79ba7"/><path d="m100.378 38.928h314.877v223.087c0 9.902-7.993 17.98-17.894 18.086-41.408.441-93.955 4.649-130.994 24.517-5.408 2.901-11.691 2.901-17.099 0-37.04-19.869-89.586-24.076-130.994-24.517-9.901-.106-17.895-8.184-17.895-18.086v-223.087z" fill="#837683"/><g><path d="m118.519 17.756c68.412.462 87.678 7.341 139.298 21.172 51.62-13.832 70.886-20.711 139.298-21.172 2.085-.015 3.884.72 5.363 2.189s2.226 3.263 2.226 5.348v236.723c0 4.123-3.334 7.492-7.456 7.536-50.1.534-100.197 6.635-135.869 25.77-2.293 1.23-4.831 1.23-7.124 0-35.672-19.135-85.77-25.236-135.869-25.77-4.122-.044-7.456-3.413-7.456-7.536v-236.723c0-2.085.747-3.879 2.226-5.348s3.278-2.204 5.363-2.189z" fill="#d1d1d6"/><path d="m404.704 246.942v15.074c0 4.123-3.334 7.492-7.456 7.536-50.1.534-100.197 6.635-135.869 25.77-2.293 1.23-4.831 1.23-7.124 0-35.672-19.135-85.77-25.236-135.869-25.77-4.122-.044-7.456-3.413-7.456-7.536v-15.074c0 4.123 3.334 7.492 7.456 7.536 50.1.534 100.197 6.635 135.869 25.77 2.293 1.23 4.831 1.23 7.124 0 35.672-19.135 85.77-25.236 135.869-25.77 4.122-.044 7.456-3.413 7.456-7.536z" fill="#b1b1b5"/><path d="m257.817 38.928c51.62-13.832 70.886-20.711 139.298-21.172 2.085-.015 3.884.72 5.363 2.189s2.226 3.263 2.226 5.348v236.723c0 4.123-3.334 7.492-7.456 7.536-50.1.534-100.197 6.635-135.869 25.77-1.146.615-2.354.922-3.562.922z" fill="#eceff1"/><path d="m404.704 246.942v15.074c0 4.123-3.334 7.492-7.456 7.536-50.1.534-100.197 6.635-135.869 25.77-1.146.615-2.354.922-3.562.922v-15.074c1.208 0 2.416-.307 3.562-.922 35.672-19.135 85.77-25.236 135.869-25.77 4.122-.044 7.456-3.413 7.456-7.536z" fill="#d1d1d6"/></g></g><g fill="#a79ba7"><path d="m236.891 237.954c3.56 1.255 5.428 5.159 4.172 8.719-1.255 3.559-5.159 5.427-8.719 4.172-14.987-5.333-30.682-9.027-47.04-11.542-16.598-2.553-33.72-3.896-51.378-4.502-3.766-.118-6.724-3.268-6.606-7.034s3.267-6.724 7.034-6.606c18.382.631 36.068 2.008 52.982 4.609 17.154 2.638 33.679 6.536 49.555 12.184z"/><path d="m236.811 195.683c3.575 1.211 5.49 5.091 4.279 8.665s-5.091 5.49-8.665 4.279c-16.062-5.45-31.835-9.092-47.99-11.519-16.34-2.455-32.932-3.667-50.509-4.244-3.766-.118-6.724-3.268-6.606-7.034s3.267-6.724 7.034-6.606c18.28.6 35.428 1.845 52.113 4.352 16.869 2.535 33.408 6.36 50.344 12.107z"/><path d="m236.704 153.331c3.589 1.152 5.565 4.996 4.413 8.585s-4.996 5.565-8.585 4.413c-17.304-5.561-33.174-9.132-49.075-11.45-16.048-2.34-32.046-3.408-49.504-3.951-3.766-.103-6.736-3.241-6.632-7.007.103-3.766 3.241-6.736 7.007-6.633 18.094.563 34.614 1.661 51.055 4.058 16.59 2.418 33.182 6.155 51.321 11.985z"/><path d="m236.597 110.873c3.619 1.093 5.666 4.913 4.573 8.531-1.093 3.619-4.913 5.666-8.531 4.573-18.787-5.69-34.784-9.18-50.332-11.364-15.731-2.209-31.068-3.12-48.353-3.625-3.766-.103-6.736-3.241-6.632-7.007.103-3.766 3.241-6.736 7.007-6.633 17.848.521 33.668 1.46 49.851 3.732 16.364 2.299 33.04 5.924 52.417 11.793z"/><path d="m236.49 68.37c3.633 1.034 5.741 4.818 4.707 8.451-1.034 3.634-4.818 5.741-8.451 4.707-20.288-5.773-36.447-9.162-51.721-11.21-15.395-2.065-30.004-2.808-47.045-3.268-3.766-.089-6.748-3.214-6.659-6.98.088-3.766 3.214-6.748 6.98-6.66 17.565.475 32.633 1.241 48.543 3.375 16.03 2.151 32.808 5.655 53.646 11.585z"/><path d="m283.289 250.845c-3.56 1.255-7.463-.613-8.719-4.172-1.255-3.56.612-7.463 4.172-8.719 15.876-5.649 32.401-9.546 49.555-12.185 16.914-2.602 34.6-3.978 52.982-4.609 3.766-.118 6.916 2.839 7.034 6.606.118 3.766-2.84 6.916-6.606 7.034-17.657.607-34.779 1.95-51.378 4.502-16.358 2.517-32.052 6.21-47.04 11.543z"/><path d="m283.209 208.628c-3.574 1.211-7.455-.705-8.665-4.279-1.211-3.574.705-7.454 4.279-8.665 16.936-5.747 33.474-9.573 50.344-12.107 16.685-2.507 33.833-3.752 52.113-4.352 3.766-.118 6.916 2.84 7.034 6.606s-2.84 6.916-6.606 7.034c-17.576.577-34.168 1.789-50.508 4.244-16.156 2.427-31.929 6.069-47.991 11.519z"/><path d="m283.102 166.329c-3.589 1.152-7.433-.824-8.585-4.413s.824-7.433 4.413-8.585c18.138-5.829 34.731-9.566 51.321-11.985 16.441-2.397 32.962-3.495 51.056-4.058 3.766-.103 6.904 2.866 7.007 6.633.103 3.766-2.866 6.904-6.633 7.007-17.458.543-33.456 1.611-49.504 3.951-15.901 2.317-31.772 5.889-49.075 11.45z" stroke="#a79ba7" stroke-miterlimit="22.926" stroke-width=".216"/><path d="m282.995 123.978c-3.619 1.093-7.439-.954-8.531-4.573-1.093-3.619.954-7.439 4.573-8.531 19.377-5.869 36.053-9.494 52.418-11.792 16.183-2.272 32.003-3.211 49.851-3.732 3.766-.103 6.904 2.866 7.007 6.633.103 3.766-2.866 6.904-6.633 7.007-17.285.505-32.622 1.416-48.353 3.625-15.548 2.182-31.545 5.673-50.332 11.363z"/><path d="m282.888 81.528c-3.633 1.034-7.418-1.074-8.451-4.707-1.034-3.633 1.074-7.418 4.707-8.451 20.838-5.93 37.616-9.434 53.647-11.584 15.909-2.134 30.977-2.9 48.542-3.375 3.766-.089 6.892 2.893 6.98 6.66.088 3.766-2.893 6.892-6.66 6.98-17.041.461-31.65 1.203-47.045 3.268-15.273 2.048-31.432 5.436-51.72 11.209z"/></g></g><g><path d="m151.793 344.027c5.728 8.17 12.465 15.581 20.031 22.052l-54.466 53.39-20.735-21.369z" fill="#a79ba7"/><path d="m151.425 343.66c1.071 3.513 3.067 6.183 5.929 7.95l-54.106 53.751-6.626-7.26z" fill="#837683"/><path d="m48.388 488.77-23.401-24.117c-4.11-4.236-4.006-11.062.228-15.172l64.816-62.896c4.234-4.11 11.064-4.007 15.173.227l23.401 24.117c4.109 4.234 4.007 11.064-.228 15.173l-64.816 62.895c-4.236 4.11-11.063 4.009-15.173-.227z" fill="#f1ba84"/><path d="m99.62 386.586-64.816 62.896c-4.234 4.11-4.338 10.936-.229 15.172l23.401 24.117c.865.891 1.85 1.6 2.906 2.124-4.07 2.023-9.172 1.302-12.496-2.124l-23.401-24.117c-4.11-4.236-4.006-11.062.229-15.172l64.816-62.896c3.343-3.245 8.303-3.864 12.266-1.897-.962.478-1.866 1.11-2.676 1.897z" fill="#e3a76f"/><ellipse cx="240.241" cy="284.61" fill="#8ac9fe" rx="118.028" ry="118.029" transform="matrix(.707 -.707 .707 .707 -130.885 253.236)"/><path d="m240.241 166.581c-65.185 0-118.028 52.843-118.028 118.029 0 65.185 52.843 118.028 118.028 118.028 1.921 0 3.831-.05 5.73-.141-62.524-2.989-112.299-54.624-112.299-117.888 0-63.265 49.776-114.899 112.299-117.888-1.899-.09-3.809-.14-5.73-.14z" fill="#60b7ff"/><ellipse cx="240.241" cy="284.61" fill="#eceff1" rx="84.751" ry="84.752" transform="matrix(.944 -.331 .331 .944 -80.665 95.565)"/><path d="m240.241 199.858c-1.926 0-3.835.07-5.73.197 44.134 2.947 79.022 39.674 79.022 84.555s-34.888 81.607-79.022 84.554c1.894.126 3.803.197 5.73.197 46.807 0 84.752-37.945 84.752-84.751 0-46.807-37.945-84.752-84.752-84.752z" fill="#d1d1d6"/></g><g><g><path d="m328.513 270.297h111.313v93.021l48.996 112.008c3.851 8.803-1.964 18.918-10.875 18.918h-187.555c-8.911 0-14.725-10.116-10.875-18.918l48.995-112.007v-93.022z" fill="#d8ecfe"/><path d="m328.513 270.297h111.313v13.598h-101.312v89.423l-48.995 112.007c-1.278 2.923-1.49 5.989-.879 8.783-7.896-1.221-12.714-10.572-9.122-18.783l48.995-112.007z" fill="#c4e2ff"/></g><path d="m429.323 395.874c-13.825 9.926-29.066 9.926-45.548.22-16.483-9.705-31.724-9.705-45.363.526l-27.448 62.764c-2.693 6.157 1.374 13.233 7.607 13.233h131.196c6.233 0 10.3-7.076 7.607-13.233z" fill="#a79ba7"/><g><path d="m319.071 248.221h130.197c3.902 0 7.095 3.193 7.095 7.095v13.374c0 3.902-3.193 7.095-7.095 7.095h-130.197c-3.902 0-7.095-3.193-7.095-7.095v-13.374c0-3.902 3.193-7.095 7.095-7.095z" fill="#add5fa"/><path d="m319.071 248.221h10c-3.902 0-7.095 3.193-7.095 7.095v13.374c0 3.902 3.193 7.095 7.095 7.095h-10c-3.902 0-7.095-3.193-7.095-7.095v-13.374c0-3.902 3.193-7.095 7.095-7.095z" fill="#9bc9ff"/></g></g></g></svg>