<svg id="Layer_1" enable-background="new 0 0 152 152" height="512" viewBox="0 0 152 152" width="512" xmlns="http://www.w3.org/2000/svg" xmlns:xlink="http://www.w3.org/1999/xlink"><linearGradient id="lg1"><stop offset="0" stop-color="#6401d9"/><stop offset=".99" stop-color="#5201b3"/></linearGradient><linearGradient id="SVGID_1_" gradientUnits="userSpaceOnUse" x1="14.041" x2="81.946" xlink:href="#lg1" y1="42.019" y2="109.924"/><linearGradient id="SVGID_2_" gradientUnits="userSpaceOnUse" x1="103.076" x2="132.38" xlink:href="#lg1" y1="29.541" y2="58.845"/><linearGradient id="SVGID_3_" gradientUnits="userSpaceOnUse" x1="87.618" x2="110.253" xlink:href="#lg1" y1="86.371" y2="109.007"/><g id="Icon"><path d="m67 45.2-15.2 37.8-14.7-37.8c-.4-1.1-1.5-1.8-2.7-1.8h-20.5c-1.6 0-2.9 1.3-2.9 2.9 0 .4.1.7.2 1.1l27.6 67.6-7 17.4c-.6 1.5.1 3.2 1.5 3.8.4.2.8.2 1.2.2h19.8c1.2 0 2.2-.7 2.7-1.8l35.3-87.3c.6-1.5-.1-3.2-1.6-3.8-.3-.1-.7-.2-1-.2h-20c-1.2.1-2.2.8-2.7 1.9z" fill="url(#SVGID_1_)"/><path d="m115.6 17.3c.5-1.1 1.5-1.8 2.7-1.8h19.8c1.6 0 2.9 1.3 2.9 2.9 0 .4-.1.8-.2 1.1l-21 51.6c-.4 1.1-1.5 1.8-2.7 1.8h-19.7c-1.6 0-2.9-1.3-2.9-2.9 0-.4.1-.7.2-1.1z" fill="url(#SVGID_2_)"/><circle cx="98.9" cy="97.7" fill="url(#SVGID_3_)" r="16"/></g></svg>