<svg clip-rule="evenodd" fill-rule="evenodd" stroke-linejoin="round" stroke-miterlimit="2" viewBox="0 0 64 64" xmlns="http://www.w3.org/2000/svg"><path d="m6 14v-9.8c0-1.2 1-2.2 2.2-2.2h20.3c.9 0 1.7.6 1.9 1.4l1.1 3.2c.3.8 1.1 1.4 2 1.4h26.3c1.2 0 2.2 1 2.2 2.2v35.8c0 2.2-1.8 4-4 4h-52.234z" fill="#ffc244" fill-rule="nonzero"/><path d="m58 50h-52c-2.2 0-4-1.8-4-4v-29.8c0-1.2 1-2.2 2.2-2.2h47.6c1.2 0 2.2 1 2.2 2.2v29.8c0 2.2 1.8 4 4 4z" fill="#ffe077" fill-rule="nonzero"/><circle cx="28" cy="50" fill="#4ce1a1" r="12"/><path d="m19.842 58.797c9.276-8.795 14.386-3.136 15.851-18.004 0 0 .169.143.252.217 2.486 2.199 4.055 5.413 4.055 8.99 0 6.623-5.377 12-12 12-3.031 0-5.801-1.126-7.914-2.983-.083-.072-.244-.22-.244-.22z" fill="#3ec2a3"/><path d="m29 54v-3.1c2.283-.463 4-2.48 4-4.9 0-2.763-2.237-5-5-5s-5 2.237-5 5c0 .552.448 1 1 1s1-.448 1-1c0-1.657 1.343-3 3-3 1.658 0 3 1.343 3 3 0 1.658-1.342 3-3 3-.552 0-1 .448-1 1v4c0 .552.448 1 1 1s1-.448 1-1z" fill="#eceaec"/><g transform="matrix(.286 0 0 .333 22.429 46.022)"><ellipse cx="19.5" cy="35" fill="#eceaec" rx="3.5" ry="3"/></g></svg>