<svg id="Layer_1" enable-background="new 0 0 200 200" viewBox="0 0 200 200" xmlns="http://www.w3.org/2000/svg"><g><circle cx="154" cy="161" fill="#3889a3" r="32"/></g><g><g><path d="m114 161c0-22.0914307 17.9086304-40 40-40 4.1812134 0 8.2115479.6439209 12 1.8339233v-62.9053955c0-3.2410278-1.3359375-6.1875-3.4882812-8.3236084l-47.5-47.1428833c-2.1523438-2.1361694-5.1210938-3.4620361-8.3867188-3.4620361h-46.0196533-34.7303467c-6.53125 0-11.875 5.3035278-11.875 11.7857056v174.4285889c0 6.4821166 5.34375 11.7857055 11.875 11.7857055h115.6342163c-15.9721069-5.2474976-27.5092163-20.2721558-27.5092163-38z" fill="#e2e5e7"/></g><g><g><path d="m165.9998322 88.1794662v-28.2508964c0-3.2410698-1.3359375-6.1875-3.488266-8.323658l-40.0731125-39.7718964.1092987 33.2211266z" fill="#cad1d8"/></g></g><g><path d="m162.5115662 51.6049118c-2.1523438-2.1361618-5.1210938-3.4620552-8.3867035-3.4620552h-23.7499542c-6.5312347 0-11.8749695-5.3035698-11.8749695-11.7857132v-23.5714293c0-3.2410717-1.3359451-6.1875-3.4882736-8.3236599z" fill="#b0b7bd"/></g><g><g><path d="m42.5532227 44.6035156h47.3374023c.8286133 0 1.5-.6713867 1.5-1.5v-4.7338867c0-.8286133-.6713867-1.5-1.5-1.5h-47.3374023c-.8286133 0-1.5.6713867-1.5 1.5v4.7338867c0 .8286133.6713867 1.5 1.5 1.5z" fill="#cad1d8"/></g><g><path d="m42.5532227 73.0058594h66.2724609c.8286133 0 1.5-.6713867 1.5-1.5v-4.7338867c0-.8286133-.6713867-1.5-1.5-1.5h-66.2724609c-.8286133 0-1.5.6713867-1.5 1.5v4.7338867c0 .8286133.6713867 1.5 1.5 1.5z" fill="#cad1d8"/></g><g><path d="m137.2280273 81.840332h-94.6748046c-.8286133 0-1.5.6713867-1.5 1.5v4.7333984c0 .8286133.6713867 1.5 1.5 1.5h94.6748047c.8286133 0 1.5-.6713867 1.5-1.5v-4.7333984c-.0000001-.8286132-.6713868-1.5-1.5000001-1.5z" fill="#cad1d8"/></g><g><path d="m118.2929688 98.4082031h-75.7397461c-.8286133 0-1.5.6713867-1.5 1.5v4.7338867c0 .8286133.6713867 1.5 1.5 1.5h75.7397461c.8286133 0 1.5-.6713867 1.5-1.5v-4.7338867c0-.8286133-.6713868-1.5-1.5-1.5z" fill="#cad1d8"/></g><g><path d="m80.4228516 114.9765625h-37.8696289c-.8286133 0-1.5.6713867-1.5 1.5v4.7333984c0 .8286133.6713867 1.5 1.5 1.5h37.8696289c.8286133 0 1.5-.6713867 1.5-1.5v-4.7333984c0-.8286133-.6713868-1.5-1.5-1.5z" fill="#cad1d8"/></g><g><path d="m80.4228516 143.3789062h-37.8696289c-.8286133 0-1.5.6713867-1.5 1.5v4.7333984c0 .8286133.6713867 1.5 1.5 1.5h37.8696289c.8286133 0 1.5-.6713867 1.5-1.5v-4.7333984c0-.8286132-.6713868-1.5-1.5-1.5z" fill="#cad1d8"/></g><g><path d="m66.2216797 159.9467773h-23.668457c-.8286133 0-1.5.6713867-1.5 1.5v4.7338867c0 .8286133.6713867 1.5 1.5 1.5h23.668457c.8286133 0 1.5-.6713867 1.5-1.5v-4.7338867c0-.8286132-.6713867-1.5-1.5-1.5z" fill="#cad1d8"/></g></g></g><g><g><path d="m154 171.4912109c-2.2089844 0-4-1.7910156-4-4v-1.7666016c0-5.4052734 3.527832-8.3300781 6.1040039-10.4658203 2.5107422-2.0810547 3.4594727-3.0429688 3.4594727-4.9013672 0-2.203125-2.2207031-3.5458984-4.4145508-3.734375-1.3134766-.109375-5.6782227.0136719-6.7705078 6.3496094-.3754883 2.1777344-2.4462891 3.6386719-4.621582 3.2617188-2.1767578-.375-3.6376953-2.4443359-3.262207-4.6210938 1.675293-9.7167969 8.9130859-13.5058594 15.3364258-12.9609375 6.6884766.5722656 11.7324219 5.6044922 11.7324219 11.7050781 0 5.7929688-3.6723633 8.8378906-6.3535156 11.0605469-2.32959 1.9316407-3.2099611 2.8027344-3.2099611 4.3066407v1.7666016c0 2.2089843-1.7910156 3.9999999-4 3.9999999z" fill="#fff"/></g><g><path d="m154 183.3994141c-2.2089844 0-4-1.7910156-4-4v-.1289062c0-2.2089844 1.7910156-4 4-4s4 1.7910156 4 4v.1289062c0 2.2089843-1.7910156 4-4 4z" fill="#fff"/></g></g></svg>