<svg id="Layer_1" enable-background="new 0 0 512 512" height="512" viewBox="0 0 512 512" width="512" xmlns="http://www.w3.org/2000/svg"><g clip-rule="evenodd" fill-rule="evenodd"><path d="m280.564 38.764-169.185 247.102c-2.15 3.141-2.37 6.946-.595 10.313s5.039 5.336 8.846 5.336h125.429l-32.693 167.94c-.453 2.326.736 4.589 2.907 5.538 2.171.948 4.64.281 6.038-1.633l179.135-245.181c2.277-3.117 2.589-6.985.842-10.427-1.748-3.442-5.056-5.472-8.916-5.472h-125.319l22.593-170.033c.309-2.323-.978-4.487-3.166-5.327-2.188-.838-4.592-.089-5.916 1.844z" fill="#fbd307"/><path d="m280.564 38.764-37.791 55.195-14.97 112.663c-.197 1.48.212 2.83 1.195 3.953s2.268 1.705 3.761 1.705h34.293l22.593-170.033c.309-2.323-.978-4.487-3.166-5.327-2.187-.838-4.591-.089-5.915 1.844zm-57.954 378.067 149.45-204.551h20.311c3.86 0 7.168 2.03 8.916 5.472s1.435 7.31-.842 10.427l-179.135 245.181c-1.398 1.913-3.866 2.581-6.038 1.633-2.171-.948-3.36-3.212-2.907-5.537z" fill="#f9c301"/></g></svg>