<svg id="Layer_1" enable-background="new 0 0 53 53" height="512" viewBox="0 0 53 53" width="512" xmlns="http://www.w3.org/2000/svg"><g id="_x31_71"><g><g><g><path d="m2.5550134 8.449029v31.7394257c0 1.460022 1.1899414 2.6500244 2.6500247 2.6500244h42.4798584c1.460083 0 2.6501465-1.1900024 2.6501465-2.6500244v-31.7394257z" fill="#e4e3ff"/></g></g><g><g><path d="m50.3349533 5.2084765v34.9799805c0 1.460022-1.1900024 2.6500244-2.6500244 2.6500244h-42.479919c-1.2100828 0-2.23999-.8200073-2.5500486-1.9400024.2299805.0700073.4599609.1000366.7099609.1000366h42.4800415c1.460022 0 2.6499634-1.1900024 2.6499634-2.6500244v-34.9799805c0-.25-.0299683-.4800415-.0999756-.710022.1400146.039978.2800293.0900269.4000244.1500244.1099854.0499878.2099609.0999756.2999878.1699829.0999756.0499878.1900024.1199951.2700195.1900024.0699463.0499878.1299438.1099854.1900024.1699829.1799927.1799927.3399658.3800049.4599609.6099854.0700073.1300049.1300049.2600098.1699829.3900146.0500488.1400146.0900269.2800293.1100464.4299927.0299677.1400148.0399775.2900392.0399775.4400025z" fill="#d0d0f7"/></g></g><g><g><path d="m46.3351364 36.9690895v-19.7346649c0-1.032505-.8370094-1.8695145-1.8695145-1.8695145h-36.0412435c-1.0325046 0-1.8695149.8370094-1.8695149 1.8695145v19.7346649c0 1.032505.8370104 1.8695145 1.8695149 1.8695145h36.0412445c1.0325041 0 1.8695135-.8370095 1.8695135-1.8695145z" fill="#d0d0f7"/></g></g><g><g><path d="m6.5550466 36.9650078v-19.7299805c0-1.0300293.8400269-1.8699951 1.8699956-1.8699951h36.039978c1.0300293 0 1.8699951.8399658 1.8699951 1.8699951v.1300049h-35.9099731c-1.0299683 0-1.8699951.8399658-1.8699951 1.8699951v19.5999756h-.1300049c-1.0299688 0-1.8699956-.8299561-1.8699956-1.8699951z" fill="#c2c2ef"/></g></g><g><g><path d="m50.3349533 12.6647148v-7.4562383c0-1.4599609-1.1900024-2.6499634-2.6500244-2.6499634h-42.479919c-1.4600828 0-2.6500242 1.1900024-2.6500242 2.6499634v7.4562383z" fill="#474646"/></g></g><g><g><g><g><path d="m10.8701992 7.795372c0 1.3223238-1.0627766 2.3851004-2.3851757 2.3851004-1.3098774 0-2.3850245-1.0627766-2.3850245-2.3851004s1.0751472-2.3850999 2.3850245-2.3850999c1.3223991 0 2.3851757 1.0627766 2.3851757 2.3850999z" fill="#f9b938"/></g></g><g><g><path d="m10.870019 7.7922587c0 1.3300166-1.0600586 2.3900142-2.380127 2.3900142-.8898931 0-1.6699224-.4899902-2.0798345-1.2199707.3498535.2099609.75.3199463 1.1799316.3199463 1.3200688 0 2.3800054-1.0599976 2.3800054-2.3899531 0-.4299927-.1099854-.8200073-.3099365-1.1700439.7199707.4000243 1.209961 1.1799926 1.209961 2.0700072z" fill="#ecb021"/></g></g></g><g><g><g><path d="m17.0468082 7.795372c0 1.3223238-1.0627775 2.3851004-2.3851767 2.3851004-1.3098774 0-2.3850241-1.0627766-2.3850241-2.3851004s1.0751467-2.3850999 2.3850241-2.3850999c1.3223992 0 2.3851767 1.0627766 2.3851767 2.3850999z" fill="#fc6559"/></g></g><g><g><path d="m17.046627 7.7922587c0 1.3300166-1.0600586 2.3900142-2.380127 2.3900142-.8898926 0-1.6699219-.4899902-2.079834-1.2199707.3498535.2099609.75.3199463 1.1799316.3199463 1.3200684 0 2.3800049-1.0599976 2.3800049-2.3899531 0-.4299927-.1099854-.8200073-.3099365-1.1700439.7199708.4000243 1.209961 1.1799926 1.209961 2.0700072z" fill="#f05543"/></g></g></g><g><g><g><path d="m23.2234154 7.795372c0 1.3223238-1.0627766 2.3851004-2.3851757 2.3851004-1.3098774 0-2.385025-1.0627766-2.385025-2.3851004s1.0751476-2.3850999 2.385025-2.3850999c1.3223991 0 2.3851757 1.0627766 2.3851757 2.3850999z" fill="#00d67f"/></g></g><g><g><path d="m23.2232342 7.7922587c0 1.3300166-1.0600586 2.3900142-2.380127 2.3900142-.8898926 0-1.6699219-.4899902-2.079834-1.2199707.3498535.2099609.75.3199463 1.1799316.3199463 1.3200684 0 2.3800049-1.0599976 2.3800049-2.3899531 0-.4299927-.1099854-.8200073-.3099365-1.1700439.7199707.4000243 1.209961 1.1799926 1.209961 2.0700072z" fill="#00c179"/></g></g></g><g><g><g><path d="m46.7899399 7.7922587c0 .7399898-.5999756 1.3300166-1.3299561 1.3300166h-16.1600342c-.7299805 0-1.3199463-.5900269-1.3199463-1.3300166 0-.7299805.5899658-1.3200073 1.3199463-1.3200073h16.1600342c.7299805 0 1.3299561.5900269 1.3299561 1.3200073z" fill="#2d2c2c"/></g></g><g><g><path d="m46.7899399 7.7922587c0 .7399898-.5999756 1.3300166-1.3299561 1.3300166h-16.1600342c-.6499023 0-1.1899414-.4700317-1.2900391-1.0900269.0700684.0100098.1501465.0200195.2200928.0200195h16.1600342c.7299805 0 1.3299561-.5899653 1.3299561-1.3300166 0-.0700073-.0100098-.1499634-.0200195-.2199707.6199951.0999757 1.0899658.6400148 1.0899658 1.2899781z" fill="#1b1b1b"/></g></g></g></g><g opacity=".5"><g><g><path d="m3.8303733 31.33144v-10.5086212c0-.4019032.3260717-.7279739.7279744-.7279739.4019022 0 .7279739.3260708.7279739.7279739v10.5086212c0 .4019012-.3260717.7279739-.7279739.7279739-.4019027 0-.7279744-.3260727-.7279744-.7279739z" fill="#fff"/></g></g></g><g opacity=".3"><g><g><path d="m30.7372551 3.8766296h1.1005211c.3983116 0 .7214661.3231575.7214661.7214677s-.3231544.7214675-.7214661.7214675h-1.1005211c-.3983097 0-.7214661-.3231573-.7214661-.7214675s.3231564-.7214677.7214661-.7214677z" fill="#fff"/></g></g><g><g><path d="m34.6726837 3.8766296h10.4146996c.3983078 0 .7214661.3231575.7214661.7214677s-.3231583.7214675-.7214661.7214675h-10.4146996c-.3983078 0-.7214661-.3231573-.7214661-.7214675s.3231583-.7214677.7214661-.7214677z" fill="#fff"/></g></g></g><g><g><path d="m24.949173 22.2952023h-15.0258789c-.4692383 0-.8500977-.3808594-.8500977-.8500977s.3808594-.8500977.8500977-.8500977h15.0258789c.4692383 0 .8500977.3808594.8500977.8500977s-.3808594.8500977-.8500977.8500977z" fill="#c2c2ef"/></g></g><g><g><path d="m24.949173 26.5237179h-15.0258789c-.4692383 0-.8500977-.3808594-.8500977-.8500977s.3808594-.8500977.8500977-.8500977h15.0258789c.4692383 0 .8500977.3808594.8500977.8500977s-.3808594.8500977-.8500977.8500977z" fill="#c2c2ef"/></g></g><g><g><path d="m24.949173 30.7522335h-15.0258789c-.4692383 0-.8500977-.3808594-.8500977-.8500977s.3808594-.8500977.8500977-.8500977h15.0258789c.4692383 0 .8500977.3808594.8500977.8500977s-.3808594.8500977-.8500977.8500977z" fill="#c2c2ef"/></g></g><g><g><path d="m43.1239777 35.9509659h-33.2006836c-.4692383 0-.8500977-.3808594-.8500977-.8500977s.3808594-.8500977.8500977-.8500977h33.2006836c.4692383 0 .8500977.3808594.8500977.8500977s-.3808595.8500977-.8500977.8500977z" fill="#c2c2ef"/></g></g></g><g><g><g><path d="m38.378 39.076h3.662v1.879h-3.662z" fill="#1b1b1b" transform="matrix(.716 -.698 .698 .716 -16.515 39.401)"/></g></g><g><g><path d="m40.9943123 35.4393654.5527039 1.3517418c.2460594.6012001.1040039 1.2949905-.3631859 1.7499657l-2.4745407 2.4098549c-.4671898.4549789-1.1645241.5786324-1.7589722.3167191l-1.3366547-.5882835c1.1515999-.4889221 2.2317734-1.1937141 3.1820068-2.1191063.9502106-.9253732 1.683384-1.9865304 2.1986428-3.1208917z" fill="#a2a2f9"/></g></g><g><g><path d="m40.9943123 35.4393654.5527039 1.3517418c.2460594.6012001.1040039 1.2949905-.3631859 1.7499657l-2.4745407 2.4098549c-.4671898.4549789-1.1645241.5786324-1.7589722.3167191l-1.3366547-.5882835c1.1515999-.4889221 2.2317734-1.1937141 3.1820068-2.1191063.9502106-.9253732 1.683384-1.9865304 2.1986428-3.1208917z" fill="#f9b938"/></g></g><g><g><path d="m40.9943123 35.4393654.5527039 1.3517418c.2460594.6012001.1040039 1.2949905-.3631859 1.7499657l-2.4745407 2.4098549c-.4117775.4010162-1.0038338.5456009-1.5489082.3898468.2743607-.0588875.534111-.1961632.7439384-.4005051l2.4745407-2.4098549c.4671898-.4549789.6092644-1.1487427.3631859-1.7499695l-.1930008-.4754562c.1639747-.2831459.3124313-.5742913.4452667-.8656235z" fill="#ecb021"/></g></g><g><g><path d="m39.0097198 22.4864864c-2.3599854-2.4199829-5.5400391-3.5699463-8.6699219-3.4299927-2.6800537.1199951-5.3300781 1.1900024-7.4100342 3.210022-4.5 4.3800049-4.5899658 11.5899677-.210083 16.0899677 2.0200195 2.0700073 4.630127 3.2000122 7.3100586 3.4000244 1.7900391.1300049 3.5999756-.1599731 5.2900391-.8800049 1.2600098-.5299683 2.4399414-1.2999878 3.4799805-2.3200073 1.0400391-1.0100098 1.8399658-2.1699829 2.3999023-3.4099731 1.9001465-4.1400165 1.170044-9.2000141-2.1899414-12.6600361zm-3.2800292 15.0100117c-2.9599609 2.0700073-7.0100098 2.0100098-9.9199219-.1199951-4.7900391-3.539978-4.6999512-10.6400166.1899414-14.0499897 2.9599609-2.0599976 7.0100098-2 9.9100342.1400146 4.7999267 3.5399781 4.7000732 10.6199971-.1800537 14.0299702z" fill="#ff8d8d"/></g></g><g><g><path d="m41.200222 35.1485634c-.5619774 1.2395973-1.3632355 2.3980865-2.4028358 3.4105492-1.0396347 1.0124245-2.2189407 1.7827225-3.4796104 2.3181305-1.6852074.7180862-3.5012474 1.0122871-5.2920742.8781662 1.3258629-.0668793 2.6548214-.3675308 3.8959064-.896656 1.2606316-.5354118 2.4399338-1.3057098 3.4795723-2.3181305 1.0396385-1.0124626 1.8408546-2.1709518 2.402874-3.4105492 1.8994637-4.1446991 1.1805458-9.2008514-2.1899376-12.668396-2.0121803-2.0596027-4.6081276-3.1981487-7.2748833-3.4023438 3.1324806-.1403561 6.3128586 1.0059299 8.6710052 3.4273357 3.3640709 3.4609566 4.0894852 8.5171948 2.1899834 12.6618939z" fill="#ff7b7b"/></g></g><g><g opacity=".6"><g><path d="m35.9129524 23.4660206c4.7942314 3.5383797 4.700386 10.6226978-.1858826 14.0328121-2.9560852 2.0630455-7.0118713 2.0121078-9.913168-.1272926-4.7960835-3.5366096-4.7021408-10.6323605.1858978-14.0407867 2.9569455-2.0618764 7.0127317-2.0053902 9.9131528.1352672z" fill="#a2a2f9"/></g></g><g><g><path d="m31.770771 21.878973c-1.9330215.1537361-3.8204155.9545193-5.3118992 2.4070168-3.3969994 3.3081989-3.4690094 8.745779-.1608105 12.1427784 1.4524975 1.4914856 3.3180237 2.3419685 5.246294 2.5468407-2.459095.1968117-4.9793549-.6581917-6.835083-2.5637321-3.3082008-3.3969994-3.2360783-8.8428764.1609459-12.1511002 1.9055138-1.8557034 4.4475308-2.6436692 6.9005528-2.3818036z" fill="#a2a2f9"/></g></g></g><g><g><path d="m44.0705299 39.501194 5.4867516 5.6340256c1.2029953 1.2352867 1.1806946 3.2164536-.0545921 4.4194489-1.239254 1.2068596-3.2203369 1.176712-4.423336-.0585785l-5.4867516-5.6340256z" fill="#f9b938"/></g></g><g><g><path d="m44.0709648 39.5016403 5.4867706 5.6340485c1.2029991 1.2352867 1.1806755 3.2164268-.054615 4.419426-.7799873.7595978-1.8543663 1.0267487-2.8403168.8143959.5837173-.1056252 1.1462402-.3834648 1.6055298-.8307495 1.2352867-1.2029953 1.2576141-3.1841393.054615-4.419426l-4.8775558-5.0084801z" fill="#ecb021"/></g></g><g><g><path d="m44.1713066 38.3847656c.3624458.3721695.3544731.9739418-.0216599 1.3402443l-4.3353996 4.2220726c-.376133.3663025-.9778824.3583107-1.3403244-.0138626-.3663025-.3761368-.3583603-.9778862.0177765-1.3441887l4.3353996-4.2220688c.376133-.3663025.9779053-.3583336 1.3442078.0178032z" fill="#474646"/></g></g><g><g><path d="m44.1717644 38.3852348c.362442.3721695.3544502.9739189-.0216827 1.3402214l-4.3353996 4.2220726c-.2810936.2737427-.6884232.3387184-1.0225983.1936035.1100426-.0454407.2203712-.1143227.311451-.203022l4.3353996-4.2220726c.3761101-.3662796.384079-.9680519.021637-1.3402214-.0925369-.0950203-.1971664-.1628609-.3137665-.211277.3457259-.1361122.7511939-.060421 1.0249595.2206955z" fill="#2d2c2c"/></g></g><g opacity=".3"><g><g><g><path d="m46.0446472 47.8229599-2.273098-2.3341141c-.2148781-.2206459-.5682259-.2253265-.7888718-.0104485s-.2253265.5682297-.0104485.7888756l2.273098 2.3341141c.2148781.2206459.5682297.2253227.7888756.0104446s.2253228-.5682258.0104447-.7888717z" fill="#fff"/></g></g></g><g><g><g><path d="m42.8160019 44.5076485-.5007057-.5141449c-.2148781-.2206459-.5682297-.2253265-.7888756-.0104485s-.2253227.5682297-.0104446.7888756l.5007057.5141449c.2148781.2206459.5682259.2253265.7888718.0104485s.2253265-.5682297.0104484-.7888756z" fill="#fff"/></g></g></g></g></g></g></svg>