<svg id="Layer_1" enable-background="new 0 0 512 512" height="512" viewBox="0 0 512 512" width="512" xmlns="http://www.w3.org/2000/svg"><g clip-rule="evenodd" fill-rule="evenodd"><path d="m256 0c-141.2 0-256 114.8-256 256s114.8 256 256 256 256-114.8 256-256-114.8-256-256-256z" fill="#4bae4f"/><path d="m343.4 197.7h-18v-.9c0-38.2-31.1-69.3-69.3-69.3s-69.3 31.1-69.3 69.3v.9h-18c-8.8 0-16 7.2-16 16v154.8c0 8.8 7.2 16 16 16h174.5c8.8 0 16-7.2 16-16v-154.8c.1-8.9-7-16-15.9-16zm-105.3 93.4c0-8.8 7.2-16 16-16h4.2c8.8 0 16 7.2 16 16s-7.2 16-16 16h-4.3c-8.7 0-15.9-7.2-15.9-16zm-19.2-94.3c0-20.6 16.7-37.3 37.3-37.3s37.3 16.7 37.3 37.3v.9h-74.6zm108.4 155.7h-142.3v-122.8h142.5v122.8z" fill="#fff"/></g></svg>