<svg id="Capa_1" enable-background="new 0 0 512 512" height="512" viewBox="0 0 512 512" width="512" xmlns="http://www.w3.org/2000/svg"><g><g><path d="m245 11c-135.31 0-245 109.69-245 245 0 40.761 9.966 79.189 27.576 113.002v-38.991c0-4.289 3.49-7.779 7.779-7.779h148.866c4.289 0 7.778 3.49 7.778 7.779v122.21c0 4.289-3.489 7.779-7.778 7.779h-74.924c38.851 25.896 85.51 41 135.702 41 135.31 0 245-109.69 245-245s-109.689-245-244.999-245z" fill="#d4f2f6"/></g><g><g><path d="m189.294 428.192h-113.772l-3.784 1c11.881 11.882 24.971 22.555 39.078 31.808h73.405c4.848 0 8.779-3.93 8.779-8.779v-23.029z" fill="#ffe177"/><path d="m392.404 45.555c-42.664 0-80.104 22.344-101.272 55.965l30.801 17.342c-9.077 13.771-13.869 29.752-13.869 46.289 0 46.506 37.835 84.341 84.341 84.341 2.744 0 5.597-.149 8.496-.444-1.205 12.143-3.421 24.063-6.538 35.675 65.146-1.048 117.637-54.176 117.637-119.572 0-66.051-53.545-119.596-119.596-119.596z" fill="#a6e7f0"/><g><g><path d="m392.404 248.491c-45.954 0-83.341-37.387-83.341-83.341 0-17.262 5.277-33.314 14.3-46.631l-70.647-39.777c-4.791-2.697-10.642-2.697-15.433 0l-142.271 80.104c-4.95 2.787-8.012 8.025-8.012 13.705v54.415c0 3.125.073 6.239.202 9.343 6.999-2.77 14.614-4.309 22.586-4.309 33.957 0 61.583 27.626 61.583 61.583v28.65h12.851c4.289 0 7.778 3.49 7.778 7.779v86.876c2.347 1.474 4.724 2.912 7.137 4.305l37.999 21.939c4.866 2.81 10.862 2.81 15.728 0l37.999-21.939c63.295-36.543 104.414-101.357 111.151-173.273-3.155.364-6.358.571-9.61.571z" fill="#00f2a6"/></g><g><path d="m309.063 165.15c0-7.445.996-14.659 2.836-21.532l-64.446-36.285c-1.523-.857-3.383-.857-4.906 0l-125.689 70.767c-1.573.886-2.547 2.551-2.547 4.357v46.051c0 1.23.038 2.455.061 3.681 31.822 2.356 56.998 28.981 56.998 61.394v28.65h12.851c4.289 0 7.778 3.49 7.778 7.779v53.682c6.123 4.584 12.538 8.852 19.259 12.732l31.241 18.037c1.547.893 3.453.893 5 0l31.24-18.037c54.537-31.487 90.219-87.777 96.079-149.818-37.534-8.097-65.755-41.536-65.755-81.458z" fill="#0ed290"/></g><g><path d="m258.57 376.293c-59.991-34.636-96.947-98.646-96.947-167.918v-55.479l-44.765 25.204c-1.573.886-2.547 2.551-2.547 4.357v46.051c0 1.23.038 2.455.061 3.681 31.822 2.356 56.998 28.981 56.998 61.394v28.65h12.851c4.289 0 7.778 3.49 7.778 7.779v53.682c6.123 4.584 12.538 8.852 19.259 12.732l31.241 18.037c1.547.893 3.453.893 5 0l31.24-18.037c2.424-1.4 4.797-2.866 7.146-4.362z" fill="#00c285"/></g><g fill="#07b27b"><path d="m186.366 274.633c0 6.139-4.994 11.133-11.134 11.133h8.44c6.14 0 11.134-4.994 11.134-11.133s-4.994-11.133-11.134-11.133h-5.98c-14.41 0-26.133-11.723-26.133-26.133s11.723-26.133 26.133-26.133h-8.44c-14.41 0-26.133 11.723-26.133 26.133 0 1.625.157 3.214.442 4.758 7.992 5.263 14.685 12.334 19.503 20.629 1.985.484 4.056.746 6.188.746h5.98c6.14 0 11.134 4.995 11.134 11.133z"/><g><path d="m218.076 293.267c0-4.142 3.357-7.5 7.5-7.5h-8.44c-4.143 0-7.5 3.358-7.5 7.5s3.357 7.5 7.5 7.5h8.44c-4.142 0-7.5-3.358-7.5-7.5z"/><path d="m233.569 263.5h5.98c6.14 0 11.134 4.995 11.134 11.133 0 6.139-4.994 11.133-11.134 11.133h8.44c6.14 0 11.134-4.994 11.134-11.133s-4.994-11.133-11.134-11.133h-5.98c-14.41 0-26.133-11.723-26.133-26.133s11.723-26.133 26.133-26.133h-8.44c-14.41 0-26.133 11.723-26.133 26.133s11.723 26.133 26.133 26.133z"/></g><path d="m280.194 293.267v-74.533c0-2.577 1.3-4.849 3.28-6.199-1.202-.82-2.655-1.301-4.22-1.301-4.143 0-7.5 3.358-7.5 7.5v74.533c0 4.142 3.357 7.5 7.5 7.5h8.44c-4.142 0-7.5-3.358-7.5-7.5z"/></g><g><path d="m183.673 248.5h-5.98c-6.139 0-11.133-4.995-11.133-11.133 0-6.139 4.994-11.133 11.133-11.133h22.415c4.143 0 7.5-3.358 7.5-7.5s-3.357-7.5-7.5-7.5h-22.415c-14.41 0-26.133 11.723-26.133 26.133s11.723 26.133 26.133 26.133h5.98c6.14 0 11.134 4.995 11.134 11.133 0 6.139-4.994 11.133-11.134 11.133h-12.815c.326 2.562.513 5.167.513 7.816v7.184h12.302c14.41 0 26.134-11.723 26.134-26.133s-11.724-26.133-26.134-26.133z" fill="#fff"/><g><g><path d="m247.99 300.767h-22.414c-4.143 0-7.5-3.358-7.5-7.5s3.357-7.5 7.5-7.5h22.414c6.14 0 11.134-4.994 11.134-11.133s-4.994-11.133-11.134-11.133h-5.98c-14.41 0-26.133-11.723-26.133-26.133s11.723-26.133 26.133-26.133h22.415c4.143 0 7.5 3.358 7.5 7.5s-3.357 7.5-7.5 7.5h-22.415c-6.139 0-11.133 4.994-11.133 11.133s4.994 11.133 11.133 11.133h5.98c14.41 0 26.134 11.723 26.134 26.133s-11.724 26.133-26.134 26.133z" fill="#fff"/></g></g><g><path d="m330.94 300.767h-43.246c-4.143 0-7.5-3.358-7.5-7.5v-74.533c0-4.142 3.357-7.5 7.5-7.5s7.5 3.358 7.5 7.5v67.033h35.746c4.143 0 7.5 3.358 7.5 7.5s-3.357 7.5-7.5 7.5z" fill="#fff"/></g></g><g><path d="m72.578 322.232v-28.65c0-20.518 16.692-37.21 37.21-37.21s37.21 16.692 37.21 37.21v28.65h25.373v-28.65c0-34.508-28.075-62.583-62.583-62.583s-62.583 28.074-62.583 62.583v28.65z" fill="#0681af"/><g fill="#017297"><path d="m146.999 293.583v28.65h14.7v-28.65c0-20.518-16.692-37.21-37.21-37.21-2.516 0-4.973.254-7.35.732 17.009 3.422 29.86 18.476 29.86 36.478z"/><path d="m61.906 322.232v-28.65c0-32.022 24.176-58.498 55.233-62.149-2.412-.283-4.864-.434-7.35-.434-34.508 0-62.583 28.074-62.583 62.583v28.65z"/></g><path d="m184.221 321.232h-148.866c-4.848 0-8.779 3.93-8.779 8.779v37.07c11.745 23.048 27.025 43.992 45.134 62.111h121.29v-99.181c0-4.848-3.93-8.779-8.779-8.779z" fill="#ffc344"/><path d="m26.577 330.011v37.07c8.879 17.425 19.786 33.641 32.403 48.349v-85.419c0-4.848 3.93-8.779 8.779-8.779h-32.404c-4.848.001-8.778 3.931-8.778 8.779z" fill="#feb137"/><g><path d="m128.412 367.38c0-10.723-9.062-19.329-19.946-18.578-9.001.622-16.368 7.788-17.215 16.77-.698 7.397 2.938 14.004 8.659 17.592.863.541 1.411 1.466 1.411 2.486v21.909c0 3.232 2.62 5.852 5.852 5.852h5.231c3.232 0 5.852-2.62 5.852-5.852v-21.893c0-1.027.55-1.961 1.42-2.507 5.246-3.295 8.736-9.128 8.736-15.779z" fill="#3692bc"/></g><g><path d="m110.896 407.558v-21.909c0-1.019-.547-1.944-1.411-2.486-5.722-3.588-9.357-10.195-8.659-17.592.735-7.797 6.385-14.222 13.75-16.19-1.932-.513-3.985-.727-6.11-.58-9.001.622-16.368 7.788-17.215 16.77-.698 7.397 2.938 14.004 8.659 17.592.863.541 1.411 1.466 1.411 2.486v21.909c0 3.232 2.62 5.852 5.852 5.852h5.231c.768 0 1.5-.152 2.172-.421-2.155-.863-3.68-2.967-3.68-5.431z" fill="#017297"/></g></g></g></g><g><g><g><circle cx="392.404" cy="165.151" fill="#3692bc" r="84.341"/></g><path d="m360.319 165.151c0-37.457 24.427-69.193 58.213-80.194-8.229-2.679-17.005-4.146-26.128-4.146-46.58 0-84.341 37.76-84.341 84.341 0 46.58 37.761 84.341 84.341 84.341 9.123 0 17.899-1.467 26.128-4.146-33.787-11.003-58.213-42.739-58.213-80.196z" fill="#0681af"/><g fill="#025f80"><path d="m387.046 178.394 38.174-38.174c.399-.399.834-.739 1.292-1.029-2.9-1.841-6.785-1.501-9.316 1.029l-34.162 34.162z"/><path d="m381.742 194.303-32.761-32.762c-2.929-2.929-2.929-7.678.001-10.606.399-.399.834-.739 1.291-1.029-2.9-1.84-6.785-1.501-9.315 1.029-2.93 2.929-2.93 7.677-.001 10.606l32.761 32.762c1.407 1.407 3.314 2.197 5.304 2.197 1.433 0 2.82-.416 4.012-1.171-.462-.293-.898-.632-1.292-1.026z"/></g><g><path d="m387.046 196.5c-1.989 0-3.896-.79-5.304-2.197l-32.761-32.762c-2.929-2.929-2.929-7.678.001-10.606 2.929-2.93 7.678-2.929 10.606 0l27.457 27.458 38.174-38.174c2.931-2.929 7.679-2.929 10.607 0 2.929 2.929 2.929 7.678 0 10.606l-43.478 43.477c-1.406 1.408-3.313 2.198-5.302 2.198z" fill="#fff"/></g></g></g></g></g></svg>